<svg width="15" height="15" viewBox="0 0 15 15" fill="none" xmlns="http://www.w3.org/2000/svg">
<path d="M9.01895 11.7617C8.9002 11.7617 8.78145 11.718 8.6877 11.6242C8.50645 11.443 8.50645 11.143 8.6877 10.9617L12.1502 7.49922L8.6877 4.03672C8.50645 3.85547 8.50645 3.55547 8.6877 3.37422C8.86895 3.19297 9.16895 3.19297 9.3502 3.37422L13.1439 7.16797C13.3252 7.34922 13.3252 7.64922 13.1439 7.83047L9.3502 11.6242C9.25645 11.718 9.1377 11.7617 9.01895 11.7617Z" fill="#353C40" fill-opacity="0.66"/>
<path d="M12.7063 7.96875H2.1875C1.93125 7.96875 1.71875 7.75625 1.71875 7.5C1.71875 7.24375 1.93125 7.03125 2.1875 7.03125H12.7063C12.9625 7.03125 13.175 7.24375 13.175 7.5C13.175 7.75625 12.9625 7.96875 12.7063 7.96875Z" fill="#353C40" fill-opacity="0.66"/>
</svg>
