<svg width="28" height="22" viewBox="0 0 28 22" fill="none" xmlns="http://www.w3.org/2000/svg">
<path d="M22.8271 10.356C25.6396 10.356 28.0001 8.00558 28.0001 5.17299C28.0001 2.3404 25.6697 0 22.8271 0C19.9945 0 17.6541 2.3404 17.6541 5.17299C17.6541 8.01562 19.9945 10.356 22.8271 10.356ZM8.9052 16.6138H20.5972C21.0693 16.6138 21.5012 16.2422 21.5012 15.7098C21.5012 15.1875 21.0693 14.8158 20.5972 14.8158H9.13623C8.65409 14.8158 8.35275 14.4844 8.28244 13.9721L8.13177 12.9275H20.6775C21.6619 12.9275 22.3148 12.5357 22.7166 11.7723C21.6719 11.7321 20.7077 11.4107 19.874 10.8783C19.7434 11.0391 19.5726 11.1194 19.3215 11.1194L7.8706 11.1295L7.09717 5.82589H16.278C16.1976 5.26339 16.2177 4.5904 16.3181 4.0279H6.83601L6.68534 2.94308C6.55476 2.0692 6.20319 1.62723 5.08824 1.62723H1.64293C1.14069 1.62723 0.69873 2.0692 0.69873 2.58147C0.69873 3.10379 1.14069 3.54576 1.64293 3.54576H4.7869L6.34382 14.173C6.5648 15.6897 7.36837 16.6138 8.9052 16.6138ZM19.5425 5.17299C19.5425 4.76116 19.8237 4.48996 20.2356 4.48996H22.134V2.59152C22.134 2.17969 22.4052 1.89844 22.8271 1.89844C23.249 1.89844 23.5202 2.17969 23.5202 2.59152V4.48996H25.4186C25.8304 4.48996 26.1117 4.76116 26.1117 5.17299C26.1117 5.59487 25.8304 5.86607 25.4186 5.86607H23.5202V7.77455C23.5202 8.18638 23.249 8.45759 22.8271 8.45759C22.4052 8.45759 22.134 8.18638 22.134 7.77455V5.86607H20.2356C19.8237 5.86607 19.5425 5.59487 19.5425 5.17299ZM9.72886 21.6563C10.7032 21.6563 11.4867 20.8728 11.4867 19.8984C11.4867 18.9241 10.7032 18.1406 9.72886 18.1406C8.75453 18.1406 7.97105 18.9241 7.97105 19.8984C7.97105 20.8728 8.75453 21.6563 9.72886 21.6563ZM19.0101 21.6563C19.9844 21.6563 20.7579 20.8728 20.7579 19.8984C20.7579 18.9241 19.9844 18.1406 19.0101 18.1406C18.0358 18.1406 17.2423 18.9241 17.2423 19.8984C17.2423 20.8728 18.0358 21.6563 19.0101 21.6563Z" fill="white"/>
</svg>
