<svg width="20" height="20" viewBox="0 0 20 20" fill="none" xmlns="http://www.w3.org/2000/svg">
<path d="M16.475 9.37435H13.1083C11.4333 9.37435 10.625 8.55768 10.625 6.89102V3.52435C10.625 1.84935 11.4417 1.04102 13.1083 1.04102H16.475C18.15 1.04102 18.9583 1.85768 18.9583 3.52435V6.89102C18.9583 8.55768 18.1417 9.37435 16.475 9.37435ZM13.1083 2.29102C12.125 2.29102 11.875 2.54102 11.875 3.52435V6.89102C11.875 7.87435 12.125 8.12435 13.1083 8.12435H16.475C17.4583 8.12435 17.7083 7.87435 17.7083 6.89102V3.52435C17.7083 2.54102 17.4583 2.29102 16.475 2.29102H13.1083Z" fill="#292D32"/>
<path d="M6.89175 9.37435H3.52508C1.85008 9.37435 1.04175 8.63268 1.04175 7.09935V3.31602C1.04175 1.78268 1.85841 1.04102 3.52508 1.04102H6.89175C8.56675 1.04102 9.37508 1.78268 9.37508 3.31602V7.09102C9.37508 8.63268 8.55841 9.37435 6.89175 9.37435ZM3.52508 2.29102C2.40841 2.29102 2.29175 2.60768 2.29175 3.31602V7.09102C2.29175 7.80768 2.40841 8.11602 3.52508 8.11602H6.89175C8.00841 8.11602 8.12508 7.79935 8.12508 7.09102V3.31602C8.12508 2.59935 8.00841 2.29102 6.89175 2.29102H3.52508Z" fill="#292D32"/>
<path d="M6.89175 18.9583H3.52508C1.85008 18.9583 1.04175 18.1417 1.04175 16.475V13.1083C1.04175 11.4333 1.85841 10.625 3.52508 10.625H6.89175C8.56675 10.625 9.37508 11.4417 9.37508 13.1083V16.475C9.37508 18.1417 8.55841 18.9583 6.89175 18.9583ZM3.52508 11.875C2.54175 11.875 2.29175 12.125 2.29175 13.1083V16.475C2.29175 17.4583 2.54175 17.7083 3.52508 17.7083H6.89175C7.87508 17.7083 8.12508 17.4583 8.12508 16.475V13.1083C8.12508 12.125 7.87508 11.875 6.89175 11.875H3.52508Z" fill="#292D32"/>
<path d="M17.5 13.541H12.5C12.1583 13.541 11.875 13.2577 11.875 12.916C11.875 12.5743 12.1583 12.291 12.5 12.291H17.5C17.8417 12.291 18.125 12.5743 18.125 12.916C18.125 13.2577 17.8417 13.541 17.5 13.541Z" fill="#292D32"/>
<path d="M17.5 16.875H12.5C12.1583 16.875 11.875 16.5917 11.875 16.25C11.875 15.9083 12.1583 15.625 12.5 15.625H17.5C17.8417 15.625 18.125 15.9083 18.125 16.25C18.125 16.5917 17.8417 16.875 17.5 16.875Z" fill="#292D32"/>
</svg>
