<svg width="22" height="22" viewBox="0 0 22 22" fill="none" xmlns="http://www.w3.org/2000/svg">
<path d="M16.2619 20.8535H11.2385C10.8627 20.8535 10.551 20.5418 10.551 20.166C10.551 19.7902 10.8627 19.4785 11.2385 19.4785H16.2619C17.7835 19.4785 19.021 18.241 19.021 16.7193V16.316H17.9669C16.5827 16.316 15.4094 15.2893 15.2994 13.9693C15.226 13.2085 15.501 12.466 16.051 11.9252C16.5185 11.4485 17.1602 11.1827 17.8477 11.1827H19.0119V10.5502C19.0119 9.02852 17.7744 7.79102 16.2527 7.79102H5.72938C4.20771 7.79102 2.97021 9.02852 2.97021 10.5502V12.136C2.97021 12.5118 2.65855 12.8235 2.28271 12.8235C1.90688 12.8235 1.59521 12.5118 1.59521 12.136V10.5502C1.59521 8.26769 3.44688 6.41602 5.72938 6.41602H16.2527C18.5352 6.41602 20.3869 8.26769 20.3869 10.5502V11.8702C20.3869 12.246 20.0752 12.5577 19.6994 12.5577H17.8477C17.5269 12.5577 17.2336 12.6769 17.0227 12.8969C16.7569 13.1535 16.6285 13.5018 16.6652 13.8502C16.7202 14.4552 17.2977 14.941 17.9577 14.941H19.6994C20.0752 14.941 20.3869 15.2527 20.3869 15.6285V16.7193C20.396 19.0018 18.5444 20.8535 16.2619 20.8535Z" fill="#292D32"/>
<path d="M2.2915 12.064C1.91567 12.064 1.604 11.7523 1.604 11.3765V7.18737C1.604 5.82154 2.46567 4.58399 3.73984 4.09816L11.0182 1.34816C11.7698 1.06399 12.604 1.16487 13.2548 1.6232C13.9148 2.08153 14.2998 2.82403 14.2998 3.62153V7.10485C14.2998 7.48068 13.9882 7.79235 13.6123 7.79235C13.2365 7.79235 12.9248 7.48068 12.9248 7.10485V3.62153C12.9248 3.27319 12.7598 2.95235 12.4665 2.75068C12.1732 2.54902 11.8248 2.50318 11.4948 2.63151L4.21651 5.38151C3.47401 5.66568 2.96984 6.38987 2.96984 7.18737V11.3765C2.97901 11.7615 2.66734 12.064 2.2915 12.064Z" fill="#292D32"/>
<path d="M17.9668 16.3169C16.5826 16.3169 15.4093 15.2902 15.2993 13.9702C15.2259 13.2094 15.5009 12.4669 16.0509 11.9261C16.5184 11.4494 17.1601 11.1836 17.8476 11.1836H19.7543C20.6618 11.2111 21.3584 11.9261 21.3584 12.8061V14.6944C21.3584 15.5744 20.6618 16.2894 19.7818 16.3169H17.9668ZM19.7359 12.5586H17.8568C17.5359 12.5586 17.2426 12.6778 17.0318 12.8978C16.7659 13.1544 16.6376 13.5027 16.6743 13.8511C16.7293 14.4561 17.3068 14.9419 17.9668 14.9419H19.7634C19.8826 14.9419 19.9926 14.8319 19.9926 14.6944V12.8061C19.9926 12.6686 19.8826 12.5678 19.7359 12.5586Z" fill="#292D32"/>
<path d="M12.8332 11.6875H6.4165C6.04067 11.6875 5.729 11.3758 5.729 11C5.729 10.6242 6.04067 10.3125 6.4165 10.3125H12.8332C13.209 10.3125 13.5207 10.6242 13.5207 11C13.5207 11.3758 13.209 11.6875 12.8332 11.6875Z" fill="#292D32"/>
<path d="M8.70833 18.0492C8.3325 18.0492 8.02083 17.7375 8.02083 17.3617V16.1883C8.02083 15.9866 7.85583 15.8125 7.645 15.8125H2.75C2.37417 15.8125 2.0625 15.5008 2.0625 15.125C2.0625 14.7492 2.37417 14.4375 2.75 14.4375H7.645C8.6075 14.4375 9.39583 15.2258 9.39583 16.1883V17.3617C9.39583 17.7375 9.08417 18.0492 8.70833 18.0492Z" fill="#292D32"/>
<path d="M3.86848 16.9316C3.69432 16.9316 3.52015 16.8675 3.38265 16.73L2.26432 15.6117C1.99848 15.3458 1.99848 14.9058 2.26432 14.6399L3.38265 13.5216C3.64848 13.2558 4.08848 13.2558 4.35432 13.5216C4.62015 13.7875 4.62015 14.2275 4.35432 14.4933L3.72181 15.1258L4.35432 15.7583C4.62015 16.0241 4.62015 16.4641 4.35432 16.73C4.21682 16.8675 4.04265 16.9316 3.86848 16.9316Z" fill="#292D32"/>
<path d="M8.70833 20.6527H3.81334C2.85084 20.6527 2.0625 19.8643 2.0625 18.9018V17.7285C2.0625 17.3527 2.37417 17.041 2.75 17.041C3.12583 17.041 3.4375 17.3527 3.4375 17.7285V18.9018C3.4375 19.1035 3.6025 19.2777 3.81334 19.2777H8.70833C9.08417 19.2777 9.39583 19.5894 9.39583 19.9652C9.39583 20.341 9.08417 20.6527 8.70833 20.6527Z" fill="#292D32"/>
<path d="M7.58999 21.7715C7.41583 21.7715 7.24166 21.7073 7.10416 21.5698C6.83833 21.304 6.83833 20.8639 7.10416 20.5981L7.73666 19.9657L7.10416 19.3331C6.83833 19.0673 6.83833 18.6273 7.10416 18.3615C7.36999 18.0957 7.80999 18.0957 8.07582 18.3615L9.19416 19.4798C9.45999 19.7456 9.45999 20.1856 9.19416 20.4515L8.07582 21.5698C7.94749 21.7073 7.76416 21.7715 7.58999 21.7715Z" fill="#292D32"/>
</svg>
