<svg width="22" height="22" viewBox="0 0 22 22" fill="none" xmlns="http://www.w3.org/2000/svg">
<path d="M10.9999 12.9901C9.04739 12.9901 7.45239 11.4043 7.45239 9.44263C7.45239 7.48096 9.04739 5.9043 10.9999 5.9043C12.9524 5.9043 14.5474 7.49013 14.5474 9.4518C14.5474 11.4135 12.9524 12.9901 10.9999 12.9901ZM10.9999 7.2793C9.80823 7.2793 8.82739 8.25096 8.82739 9.4518C8.82739 10.6526 9.79906 11.6243 10.9999 11.6243C12.2007 11.6243 13.1724 10.6526 13.1724 9.4518C13.1724 8.25096 12.1916 7.2793 10.9999 7.2793Z" fill="#292D32"/>
<path d="M11 20.864C9.64337 20.864 8.27754 20.3507 7.21421 19.3332C4.51004 16.7298 1.52171 12.5773 2.64921 7.63648C3.66671 3.15398 7.58087 1.14648 11 1.14648C11 1.14648 11 1.14648 11.0092 1.14648C14.4284 1.14648 18.3425 3.15398 19.36 7.64565C20.4784 12.5865 17.49 16.7298 14.7859 19.3332C13.7225 20.3507 12.3567 20.864 11 20.864ZM11 2.52148C8.33254 2.52148 4.90421 3.94232 3.99671 7.93898C3.00671 12.2565 5.72004 15.9782 8.17671 18.334C9.76254 19.8648 12.2467 19.8648 13.8325 18.334C16.28 15.9782 18.9934 12.2565 18.0217 7.93898C17.105 3.94232 13.6675 2.52148 11 2.52148Z" fill="#292D32"/>
</svg>
