<svg width="40" height="40" viewBox="0 0 40 40" fill="none" xmlns="http://www.w3.org/2000/svg">
<rect width="40" height="40" rx="12" fill="#EBEDEF"/>
<path d="M20.0001 21.2819C16.698 21.2819 14.0105 18.5944 14.0105 15.2923C14.0105 11.9902 16.698 9.30273 20.0001 9.30273C23.3022 9.30273 25.9897 11.9902 25.9897 15.2923C25.9897 18.5944 23.3022 21.2819 20.0001 21.2819ZM20.0001 10.8652C17.5626 10.8652 15.573 12.8548 15.573 15.2923C15.573 17.7298 17.5626 19.7194 20.0001 19.7194C22.4376 19.7194 24.4272 17.7298 24.4272 15.2923C24.4272 12.8548 22.4376 10.8652 20.0001 10.8652Z" fill="#DDE1E4"/>
<path d="M28.9481 31.6979C28.521 31.6979 28.1668 31.3438 28.1668 30.9167C28.1668 27.3229 24.5002 24.4062 20.0002 24.4062C15.5002 24.4062 11.8335 27.3229 11.8335 30.9167C11.8335 31.3438 11.4793 31.6979 11.0522 31.6979C10.6252 31.6979 10.271 31.3438 10.271 30.9167C10.271 26.4688 14.6356 22.8438 20.0002 22.8438C25.3647 22.8438 29.7293 26.4688 29.7293 30.9167C29.7293 31.3438 29.3752 31.6979 28.9481 31.6979Z" fill="#DDE1E4"/>
</svg>
