<svg width="22" height="22" viewBox="0 0 22 22" fill="none" xmlns="http://www.w3.org/2000/svg">
<path d="M7.33325 20.4596C7.07658 20.4596 6.81074 20.3955 6.5724 20.2671C6.0499 19.9921 5.72908 19.4421 5.72908 18.8554V17.5538C2.96075 17.2697 1.14575 15.2346 1.14575 12.3196V6.81966C1.14575 3.66633 3.26325 1.54883 6.41658 1.54883H15.5833C18.7366 1.54883 20.8541 3.66633 20.8541 6.81966V12.3196C20.8541 15.4729 18.7366 17.5904 15.5833 17.5904H12.1274L8.22239 20.1939C7.95656 20.368 7.64492 20.4596 7.33325 20.4596ZM6.41658 2.91465C4.05159 2.91465 2.52075 4.44549 2.52075 6.81049V12.3105C2.52075 14.6755 4.05159 16.2064 6.41658 16.2064C6.79242 16.2064 7.10408 16.518 7.10408 16.8939V18.8464C7.10408 18.9655 7.17742 19.0205 7.22326 19.048C7.26909 19.0755 7.36076 19.103 7.4616 19.0388L11.5408 16.3255C11.6508 16.2522 11.7883 16.2064 11.9258 16.2064H15.5924C17.9574 16.2064 19.4883 14.6755 19.4883 12.3105V6.81049C19.4883 4.44549 17.9574 2.91465 15.5924 2.91465H6.41658Z" fill="#353C40"/>
<path d="M10.9999 11.1016C10.6241 11.1016 10.3124 10.7899 10.3124 10.4141V10.2216C10.3124 9.15826 11.0916 8.63575 11.3849 8.43409C11.7241 8.20492 11.8341 8.04909 11.8341 7.81076C11.8341 7.35243 11.4582 6.97656 10.9999 6.97656C10.5416 6.97656 10.1658 7.35243 10.1658 7.81076C10.1658 8.18659 9.8541 8.49826 9.47827 8.49826C9.10244 8.49826 8.79077 8.18659 8.79077 7.81076C8.79077 6.59159 9.78075 5.60156 10.9999 5.60156C12.2191 5.60156 13.2091 6.59159 13.2091 7.81076C13.2091 8.85576 12.4391 9.37824 12.1549 9.57074C11.7974 9.80908 11.6874 9.96493 11.6874 10.2216V10.4141C11.6874 10.7991 11.3757 11.1016 10.9999 11.1016Z" fill="#353C40"/>
<path d="M11 13.3828C10.615 13.3828 10.3125 13.0711 10.3125 12.6953C10.3125 12.3195 10.6242 12.0078 11 12.0078C11.3758 12.0078 11.6875 12.3195 11.6875 12.6953C11.6875 13.0711 11.385 13.3828 11 13.3828Z" fill="#353C40"/>
</svg>
