<svg width="22" height="23" viewBox="0 0 22 23" fill="none" xmlns="http://www.w3.org/2000/svg">
<path d="M16.4996 7.90639C16.4721 7.90639 16.4538 7.90639 16.4263 7.90639H16.3805C14.648 7.85139 13.3555 6.51305 13.3555 4.86305C13.3555 3.17638 14.7305 1.81055 16.408 1.81055C18.0855 1.81055 19.4605 3.18555 19.4605 4.86305C19.4513 6.52222 18.1588 7.86055 16.5088 7.91555C16.5088 7.90638 16.5088 7.90639 16.4996 7.90639ZM16.408 3.17639C15.4821 3.17639 14.7305 3.92805 14.7305 4.85389C14.7305 5.76139 15.4363 6.49472 16.3438 6.53139C16.353 6.52222 16.4263 6.52222 16.5088 6.53139C17.398 6.48556 18.0855 5.75222 18.0946 4.85389C18.0946 3.92805 17.343 3.17639 16.408 3.17639Z" fill="#14DC5A"/>
<path d="M16.5091 14.6625C16.1516 14.6625 15.7941 14.635 15.4366 14.5709C15.0608 14.5067 14.8133 14.1492 14.8775 13.7734C14.9416 13.3975 15.2991 13.15 15.675 13.2142C16.8025 13.4067 17.9941 13.1959 18.7916 12.6642C19.2225 12.38 19.4516 12.0225 19.4516 11.665C19.4516 11.3075 19.2133 10.9592 18.7916 10.675C17.9941 10.1434 16.7841 9.93252 15.6475 10.1342C15.2716 10.2075 14.9141 9.95085 14.85 9.57502C14.7858 9.19919 15.0333 8.84169 15.4091 8.77753C16.9033 8.51169 18.4525 8.79585 19.5525 9.52919C20.3591 10.07 20.8266 10.84 20.8266 11.665C20.8266 12.4809 20.3683 13.26 19.5525 13.81C18.7183 14.36 17.6366 14.6625 16.5091 14.6625Z" fill="#14DC5A"/>
<path d="M15.5473 20.5148C15.3731 20.5148 15.199 20.4507 15.0615 20.3132L13.6681 18.9198C13.4023 18.654 13.4023 18.214 13.6681 17.9482C13.934 17.6823 14.374 17.6823 14.6398 17.9482L15.5473 18.8557L17.8481 16.5548C18.114 16.289 18.554 16.289 18.8198 16.5548C19.0856 16.8207 19.0856 17.2607 18.8198 17.5265L16.0331 20.3132C15.8956 20.4507 15.7215 20.5148 15.5473 20.5148Z" fill="#14DC5A"/>
<path d="M5.47391 7.90774C5.46474 7.90774 5.45557 7.90774 5.45557 7.90774C3.80557 7.85274 2.51307 6.5144 2.50391 4.8644C2.50391 3.17773 3.87891 1.80273 5.55641 1.80273C7.23391 1.80273 8.60891 3.17774 8.60891 4.85524C8.60891 6.5144 7.31641 7.85274 5.66641 7.90774L5.47391 7.22024L5.53807 7.90774C5.51974 7.90774 5.49224 7.90774 5.47391 7.90774ZM5.56557 6.53274C5.62057 6.53274 5.66641 6.53273 5.72141 6.5419C6.53724 6.50523 7.25224 5.7719 7.25224 4.8644C7.25224 3.93856 6.50058 3.1869 5.57474 3.1869C4.64891 3.1869 3.89724 3.93856 3.89724 4.8644C3.89724 5.76273 4.59391 6.4869 5.48307 6.5419C5.49224 6.53273 5.52891 6.53274 5.56557 6.53274Z" fill="#14DC5A"/>
<path d="M5.46398 14.6625C4.33648 14.6625 3.25482 14.36 2.42065 13.81C1.61398 13.2692 1.14648 12.49 1.14648 11.665C1.14648 10.8492 1.61398 10.07 2.42065 9.52919C3.52065 8.79585 5.06982 8.51169 6.56398 8.77753C6.93982 8.84169 7.18732 9.19919 7.12315 9.57502C7.05898 9.95085 6.70149 10.2075 6.32565 10.1342C5.18899 9.93252 3.98815 10.1434 3.18149 10.675C2.75065 10.9592 2.52148 11.3075 2.52148 11.665C2.52148 12.0225 2.75982 12.38 3.18149 12.6642C3.97899 13.1959 5.17065 13.4067 6.29815 13.2142C6.67398 13.15 7.03149 13.4067 7.09565 13.7734C7.15982 14.1492 6.91232 14.5067 6.53649 14.5709C6.17899 14.635 5.82148 14.6625 5.46398 14.6625Z" fill="#14DC5A"/>
<path d="M10.964 21.3051C9.83648 21.3051 8.75482 21.0026 7.92065 20.4526C7.11398 19.9118 6.64648 19.1326 6.64648 18.3076C6.64648 17.4918 7.11398 16.7126 7.92065 16.1718C9.02065 15.4384 10.5698 15.1543 12.064 15.4201C12.4398 15.4843 12.6873 15.8418 12.6232 16.2176C12.559 16.5934 12.2015 16.8501 11.8257 16.7768C10.689 16.5751 9.48815 16.7859 8.68149 17.3176C8.25065 17.6018 8.02148 17.9501 8.02148 18.3076C8.02148 18.6651 8.25982 19.0226 8.68149 19.3068C9.47899 19.8384 10.6707 20.0493 11.7982 19.8568C12.174 19.7926 12.5315 20.0493 12.5957 20.4159C12.6598 20.7918 12.4123 21.1493 12.0365 21.2134C11.679 21.2776 11.3215 21.3051 10.964 21.3051Z" fill="#14DC5A"/>
<path d="M10.9996 14.756C10.9721 14.756 10.9538 14.756 10.9263 14.756H10.8805C9.14797 14.701 7.85547 13.3627 7.85547 11.7127C7.85547 10.026 9.23047 8.66016 10.908 8.66016C12.5855 8.66016 13.9605 10.0352 13.9605 11.7127C13.9513 13.3718 12.6588 14.7102 11.0088 14.7652C11.0088 14.756 11.0088 14.756 10.9996 14.756ZM10.908 10.026C9.98214 10.026 9.23047 10.7777 9.23047 11.7035C9.23047 12.611 9.9363 13.3443 10.8438 13.381C10.853 13.3718 10.9263 13.3718 11.0088 13.381C11.898 13.3352 12.5855 12.6018 12.5946 11.7035C12.5946 10.7868 11.843 10.026 10.908 10.026Z" fill="#14DC5A"/>
</svg>
