<svg width="22" height="22" viewBox="0 0 22 22" fill="none" xmlns="http://www.w3.org/2000/svg">
<path d="M5.01402 9.85482C4.36319 9.85482 3.70319 9.61648 3.19902 9.13065C1.51236 7.52648 0.834024 5.77565 1.22819 4.06148C1.69569 2.04482 3.46486 1.14648 5.01402 1.14648C6.56319 1.14648 8.34152 2.05398 8.79986 4.06148C9.19403 5.77565 8.50652 7.52648 6.82902 9.13065C6.32486 9.61648 5.67402 9.85482 5.01402 9.85482ZM2.56652 4.37315C2.21819 5.90398 3.23569 7.26065 4.15236 8.13148C4.63819 8.59898 5.39902 8.58982 5.88486 8.13148C6.80152 7.26065 7.81902 5.90398 7.46152 4.36398C7.14986 3.00732 5.94902 2.52148 5.02319 2.52148C4.08819 2.52148 2.88736 3.00732 2.56652 4.37315Z" fill="#292D32"/>
<path d="M5.05094 5.68294C4.54678 5.68294 4.13428 5.27044 4.13428 4.76628C4.13428 4.26211 4.53761 3.84961 5.05094 3.84961H5.06011C5.56428 3.84961 5.97678 4.26211 5.97678 4.76628C5.97678 5.27044 5.56428 5.68294 5.05094 5.68294Z" fill="#292D32"/>
<path d="M16.9493 20.8542C16.2984 20.8542 15.6384 20.6159 15.1251 20.1301C13.4293 18.5259 12.7418 16.7751 13.1451 15.0517C13.6126 13.0442 15.3909 12.1367 16.9493 12.1367C18.5076 12.1367 20.2859 13.0442 20.7534 15.0517C21.1476 16.7659 20.4601 18.5259 18.7643 20.1209C18.2601 20.6159 17.6093 20.8542 16.9493 20.8542ZM16.9493 13.5209C16.0143 13.5209 14.8043 14.0067 14.4834 15.3726C14.1259 16.9034 15.1526 18.2692 16.0693 19.1401C16.5551 19.6076 17.3251 19.6076 17.8201 19.1401C18.7368 18.2692 19.7634 16.9126 19.4059 15.3817C19.1034 14.0067 17.8934 13.5209 16.9493 13.5209Z" fill="#292D32"/>
<path d="M16.986 16.6829C16.4818 16.6829 16.0693 16.2704 16.0693 15.7663C16.0693 15.2621 16.4727 14.8496 16.986 14.8496H16.9952C17.4993 14.8496 17.9118 15.2621 17.9118 15.7663C17.9118 16.2704 17.4902 16.6829 16.986 16.6829Z" fill="#292D32"/>
<path d="M11 18.1048H8.54332C7.47999 18.1048 6.55415 17.4632 6.18749 16.4732C5.81165 15.4831 6.08665 14.3923 6.88415 13.6865L14.2083 7.27898C14.6483 6.89398 14.6575 6.37148 14.5292 6.01398C14.3917 5.65648 14.0433 5.27148 13.4567 5.27148H11C10.6242 5.27148 10.3125 4.95982 10.3125 4.58398C10.3125 4.20815 10.6242 3.89648 11 3.89648H13.4567C14.52 3.89648 15.4458 4.53815 15.8125 5.52815C16.1883 6.51815 15.9133 7.60898 15.1158 8.31482L7.79165 14.7223C7.35165 15.1073 7.34249 15.6298 7.47082 15.9873C7.60832 16.3448 7.95665 16.7298 8.54332 16.7298H11C11.3758 16.7298 11.6875 17.0415 11.6875 17.4173C11.6875 17.7932 11.3758 18.1048 11 18.1048Z" fill="#292D32"/>
<path d="M11 18.1048H8.54332C7.47999 18.1048 6.55415 17.4632 6.18749 16.4732C5.81165 15.4831 6.08665 14.3923 6.88415 13.6865L14.2083 7.27898C14.6483 6.89398 14.6575 6.37148 14.5292 6.01398C14.3917 5.65648 14.0433 5.27148 13.4567 5.27148H11C10.6242 5.27148 10.3125 4.95982 10.3125 4.58398C10.3125 4.20815 10.6242 3.89648 11 3.89648H13.4567C14.52 3.89648 15.4458 4.53815 15.8125 5.52815C16.1883 6.51815 15.9133 7.60898 15.1158 8.31482L7.79165 14.7223C7.35165 15.1073 7.34249 15.6298 7.47082 15.9873C7.60832 16.3448 7.95665 16.7298 8.54332 16.7298H11C11.3758 16.7298 11.6875 17.0415 11.6875 17.4173C11.6875 17.7932 11.3758 18.1048 11 18.1048Z" fill="#292D32"/>
</svg>
