<svg width="20" height="20" viewBox="0 0 20 20" fill="none" xmlns="http://www.w3.org/2000/svg">
<path fill-rule="evenodd" clip-rule="evenodd" d="M7.48398 18.1742C8.19232 18.6992 9.09232 18.9659 10.0007 18.9659C10.909 18.9659 11.809 18.6992 12.5007 18.1659L16.084 15.4909C17.034 14.7826 17.7757 13.3076 17.7757 12.1242V5.93255C17.7757 4.64922 16.834 3.28255 15.6257 2.83255L11.4673 1.27422C10.6423 0.965885 9.34232 0.965885 8.51732 1.27422L4.35898 2.83255C3.15065 3.28255 2.20898 4.64922 2.20898 5.93255V12.1326C2.20898 13.3076 2.95065 14.7909 3.90065 15.4992L7.48398 18.1742ZM4.80065 4.00755L8.95898 2.44922C9.51732 2.24089 10.484 2.24089 11.0507 2.44089L15.209 3.99922C15.9173 4.27422 16.5423 5.17422 16.5423 5.93255V12.1326C16.5423 12.9242 15.9923 14.0242 15.359 14.4992L11.7757 17.1742C10.809 17.8909 9.19232 17.8909 8.23398 17.1742L4.65065 14.4992C4.02565 14.0326 3.46732 12.9242 3.46732 12.1326V5.94089C3.46732 5.17422 4.09232 4.27422 4.80065 4.00755ZM10.1617 9.59153H10.0975C8.76836 9.55486 7.79671 8.53737 7.79671 7.29987C7.79671 6.03487 8.83253 4.99902 10.0975 4.99902C11.3625 4.99902 12.3984 6.03487 12.3984 7.29987C12.3892 8.54653 11.4175 9.55485 10.18 9.60068C10.1709 9.59153 10.1709 9.59153 10.1618 9.59153H10.1617ZM10.0975 6.37402C9.58419 6.37402 9.17171 6.78653 9.17171 7.29987C9.17171 7.80403 9.56588 8.20735 10.0609 8.22568H10.1617C10.6475 8.19818 11.0234 7.79487 11.0234 7.29987C11.0325 6.78653 10.6109 6.37402 10.0975 6.37402ZM10.1625 14.798C9.37418 14.798 8.57668 14.5872 7.96252 14.1747C7.34835 13.7714 7 13.1755 7 12.543C7 11.9105 7.34835 11.3147 7.96252 10.9022C9.20002 10.0772 11.1342 10.0863 12.3625 10.9022C12.9767 11.3055 13.325 11.9013 13.325 12.5338C13.325 13.1663 12.9767 13.7622 12.3625 14.1747C11.7483 14.5872 10.9508 14.798 10.1625 14.798ZM8.72334 12.0388C8.49417 12.1855 8.36583 12.3688 8.375 12.5338C8.375 12.6988 8.50334 12.8822 8.72334 13.0289C9.49334 13.5422 10.8317 13.5422 11.6017 13.0289C11.8309 12.8822 11.9592 12.6988 11.9592 12.5338C11.9592 12.3688 11.8308 12.1855 11.6108 12.0388C10.8408 11.5347 9.49334 11.5347 8.72334 12.0388Z" fill="#292D32"/>
</svg>
