<svg width="44" height="45" viewBox="0 0 44 45" fill="none" xmlns="http://www.w3.org/2000/svg">
<rect y="0.5" width="44" height="44" rx="12" fill="#DB1AE5"/>
<path d="M25.094 34.8169H18.9065C13.2461 34.8169 10.8398 32.3992 10.8398 26.7503V21.6055C10.8398 21.1357 11.2294 20.7461 11.6992 20.7461C12.169 20.7461 12.5586 21.1357 12.5586 21.6055V26.7503C12.5586 31.4367 14.2201 33.0982 18.9065 33.0982H25.0826C29.769 33.0982 31.4305 31.4367 31.4305 26.7503V21.6055C31.4305 21.1357 31.8201 20.7461 32.2898 20.7461C32.7596 20.7461 33.1492 21.1357 33.1492 21.6055V26.7503C33.1607 32.3992 30.743 34.8169 25.094 34.8169Z" fill="#F9F9F9"/>
<path d="M21.9996 23.3587C20.7392 23.3587 19.5934 22.866 18.7798 21.9608C17.9663 21.0556 17.5882 19.8754 17.7142 18.615L18.4819 10.9608C18.5277 10.5254 18.8944 10.1816 19.3413 10.1816H24.6923C25.1392 10.1816 25.5059 10.5139 25.5517 10.9608L26.3194 18.615C26.4454 19.8754 26.0673 21.0556 25.2538 21.9608C24.4059 22.866 23.26 23.3587 21.9996 23.3587ZM20.109 11.9004L19.4215 18.7868C19.3413 19.5546 19.5704 20.2764 20.0517 20.8035C21.0257 21.8806 22.9736 21.8806 23.9475 20.8035C24.4288 20.265 24.6579 19.5431 24.5777 18.7868L23.8902 11.9004H20.109Z" fill="#F9F9F9"/>
<path d="M29.2298 23.3587C26.9037 23.3587 24.8298 21.4796 24.5891 19.165L23.7871 11.1327C23.7641 10.8921 23.8443 10.6514 24.0048 10.4681C24.1652 10.2848 24.3943 10.1816 24.6464 10.1816H28.1412C31.51 10.1816 33.0798 11.591 33.5496 15.0514L33.8704 18.2368C34.0079 19.5889 33.5954 20.8723 32.7131 21.8462C31.8308 22.8202 30.5933 23.3587 29.2298 23.3587ZM25.5975 11.9004L26.3079 18.9931C26.4568 20.4254 27.786 21.64 29.2298 21.64C30.1006 21.64 30.8798 21.3077 31.4412 20.7004C31.9912 20.0931 32.2433 19.2796 32.1631 18.4087L31.8423 15.2577C31.4871 12.6681 30.6506 11.9004 28.1412 11.9004H25.5975Z" fill="#F9F9F9"/>
<path d="M14.7125 23.3587C13.3489 23.3587 12.1114 22.8202 11.2291 21.8462C10.3468 20.8723 9.93434 19.5889 10.0718 18.2368L10.3812 15.0858C10.8625 11.591 12.4323 10.1816 15.801 10.1816H19.2958C19.5364 10.1816 19.7656 10.2848 19.9375 10.4681C20.1093 10.6514 20.1781 10.8921 20.1552 11.1327L19.3531 19.165C19.1125 21.4796 17.0385 23.3587 14.7125 23.3587ZM15.801 11.9004C13.2916 11.9004 12.4552 12.6566 12.0885 15.2806L11.7791 18.4087C11.6875 19.2796 11.951 20.0931 12.501 20.7004C13.051 21.3077 13.8302 21.64 14.7125 21.64C16.1562 21.64 17.4968 20.4254 17.6343 18.9931L18.3448 11.9004H15.801Z" fill="#F9F9F9"/>
<path d="M24.8649 34.8171H19.1357C18.666 34.8171 18.2764 34.4275 18.2764 33.9577V31.0931C18.2764 28.6868 19.5941 27.3691 22.0003 27.3691C24.4066 27.3691 25.7243 28.6868 25.7243 31.0931V33.9577C25.7243 34.4275 25.3347 34.8171 24.8649 34.8171ZM19.9951 33.0983H24.0055V31.0931C24.0055 29.6493 23.4441 29.0879 22.0003 29.0879C20.5566 29.0879 19.9951 29.6493 19.9951 31.0931V33.0983Z" fill="#F9F9F9"/>
</svg>
