<svg width="66" height="10" viewBox="0 0 66 10" fill="none" xmlns="http://www.w3.org/2000/svg">
<path d="M7.63482 9.96631C7.38824 9.96631 7.07187 9.88721 6.6764 9.65459L5.2853 8.83109C5.14108 8.74735 4.86193 8.74735 4.72235 8.83109L3.3266 9.65459C2.5031 10.1431 2.01924 9.9477 1.80058 9.78951C1.58656 9.63133 1.25158 9.22656 1.47025 8.29606L1.80058 6.86774C1.8378 6.71886 1.76336 6.46297 1.6517 6.35131L0.497873 5.19749C-0.0790379 4.62058 -0.0325127 4.12741 0.0465799 3.88548C0.125673 3.64355 0.376908 3.21552 1.17714 3.0806L2.66129 2.83401C2.80086 2.81075 3.00092 2.66187 3.0614 2.53625L3.8849 0.893917C4.2571 0.144863 4.74561 0.0332031 5.0015 0.0332031C5.25739 0.0332031 5.7459 0.144863 6.1181 0.893917L6.93694 2.5316C7.00208 2.65722 7.20214 2.8061 7.34171 2.82936L8.82586 3.07594C9.63075 3.21087 9.88198 3.6389 9.95642 3.88083C10.0309 4.12276 10.0774 4.61592 9.50513 5.19283L8.35131 6.35131C8.23965 6.46297 8.16986 6.7142 8.20243 6.86774L8.53275 8.29606C8.74677 9.22656 8.41644 9.63133 8.20243 9.78951C8.08611 9.87326 7.90001 9.96631 7.63482 9.96631Z" fill="#FFA901"/>
<path d="M21.6348 9.96631C21.3882 9.96631 21.0719 9.88721 20.6764 9.65459L19.2853 8.83109C19.1411 8.74735 18.8619 8.74735 18.7224 8.83109L17.3266 9.65459C16.5031 10.1431 16.0192 9.9477 15.8006 9.78951C15.5866 9.63133 15.2516 9.22656 15.4702 8.29606L15.8006 6.86774C15.8378 6.71886 15.7634 6.46297 15.6517 6.35131L14.4979 5.19749C13.921 4.62058 13.9675 4.12741 14.0466 3.88548C14.1257 3.64355 14.3769 3.21552 15.1771 3.0806L16.6613 2.83401C16.8009 2.81075 17.0009 2.66187 17.0614 2.53625L17.8849 0.893917C18.2571 0.144863 18.7456 0.0332031 19.0015 0.0332031C19.2574 0.0332031 19.7459 0.144863 20.1181 0.893917L20.9369 2.5316C21.0021 2.65722 21.2021 2.8061 21.3417 2.82936L22.8259 3.07594C23.6307 3.21087 23.882 3.6389 23.9564 3.88083C24.0309 4.12276 24.0774 4.61592 23.5051 5.19283L22.3513 6.35131C22.2396 6.46297 22.1699 6.7142 22.2024 6.86774L22.5328 8.29606C22.7468 9.22656 22.4164 9.63133 22.2024 9.78951C22.0861 9.87326 21.9 9.96631 21.6348 9.96631Z" fill="#FFA901"/>
<path d="M35.6348 9.96631C35.3882 9.96631 35.0719 9.88721 34.6764 9.65459L33.2853 8.83109C33.1411 8.74735 32.8619 8.74735 32.7224 8.83109L31.3266 9.65459C30.5031 10.1431 30.0192 9.9477 29.8006 9.78951C29.5866 9.63133 29.2516 9.22656 29.4702 8.29606L29.8006 6.86774C29.8378 6.71886 29.7634 6.46297 29.6517 6.35131L28.4979 5.19749C27.921 4.62058 27.9675 4.12741 28.0466 3.88548C28.1257 3.64355 28.3769 3.21552 29.1771 3.0806L30.6613 2.83401C30.8009 2.81075 31.0009 2.66187 31.0614 2.53625L31.8849 0.893917C32.2571 0.144863 32.7456 0.0332031 33.0015 0.0332031C33.2574 0.0332031 33.7459 0.144863 34.1181 0.893917L34.9369 2.5316C35.0021 2.65722 35.2021 2.8061 35.3417 2.82936L36.8259 3.07594C37.6307 3.21087 37.882 3.6389 37.9564 3.88083C38.0309 4.12276 38.0774 4.61592 37.5051 5.19283L36.3513 6.35131C36.2396 6.46297 36.1699 6.7142 36.2024 6.86774L36.5328 8.29606C36.7468 9.22656 36.4164 9.63133 36.2024 9.78951C36.0861 9.87326 35.9 9.96631 35.6348 9.96631Z" fill="#FFA901"/>
<path d="M49.6348 9.96631C49.3882 9.96631 49.0719 9.88721 48.6764 9.65459L47.2853 8.83109C47.1411 8.74735 46.8619 8.74735 46.7224 8.83109L45.3266 9.65459C44.5031 10.1431 44.0192 9.9477 43.8006 9.78951C43.5866 9.63133 43.2516 9.22656 43.4702 8.29606L43.8006 6.86774C43.8378 6.71886 43.7634 6.46297 43.6517 6.35131L42.4979 5.19749C41.921 4.62058 41.9675 4.12741 42.0466 3.88548C42.1257 3.64355 42.3769 3.21552 43.1771 3.0806L44.6613 2.83401C44.8009 2.81075 45.0009 2.66187 45.0614 2.53625L45.8849 0.893917C46.2571 0.144863 46.7456 0.0332031 47.0015 0.0332031C47.2574 0.0332031 47.7459 0.144863 48.1181 0.893917L48.9369 2.5316C49.0021 2.65722 49.2021 2.8061 49.3417 2.82936L50.8259 3.07594C51.6307 3.21087 51.882 3.6389 51.9564 3.88083C52.0309 4.12276 52.0774 4.61592 51.5051 5.19283L50.3513 6.35131C50.2396 6.46297 50.1699 6.7142 50.2024 6.86774L50.5328 8.29606C50.7468 9.22656 50.4164 9.63133 50.2024 9.78951C50.0861 9.87326 49.9 9.96631 49.6348 9.96631Z" fill="#FFA901"/>
<path d="M63.6348 9.96631C63.3882 9.96631 63.0719 9.88721 62.6764 9.65459L61.2853 8.83109C61.1411 8.74735 60.8619 8.74735 60.7224 8.83109L59.3266 9.65459C58.5031 10.1431 58.0192 9.9477 57.8006 9.78951C57.5866 9.63133 57.2516 9.22656 57.4702 8.29606L57.8006 6.86774C57.8378 6.71886 57.7634 6.46297 57.6517 6.35131L56.4979 5.19749C55.921 4.62058 55.9675 4.12741 56.0466 3.88548C56.1257 3.64355 56.3769 3.21552 57.1771 3.0806L58.6613 2.83401C58.8009 2.81075 59.0009 2.66187 59.0614 2.53625L59.8849 0.893917C60.2571 0.144863 60.7456 0.0332031 61.0015 0.0332031C61.2574 0.0332031 61.7459 0.144863 62.1181 0.893917L62.9369 2.5316C63.0021 2.65722 63.2021 2.8061 63.3417 2.82936L64.8259 3.07594C65.6307 3.21087 65.882 3.6389 65.9564 3.88083C66.0309 4.12276 66.0774 4.61592 65.5051 5.19283L64.3513 6.35131C64.2396 6.46297 64.1699 6.7142 64.2024 6.86774L64.5328 8.29606C64.7468 9.22656 64.4164 9.63133 64.2024 9.78951C64.0861 9.87326 63.9 9.96631 63.6348 9.96631Z" fill="#DDE1E4"/>
</svg>
