<svg width="10" height="10" viewBox="0 0 10 10" fill="none" xmlns="http://www.w3.org/2000/svg">
<path d="M9.73982 2.9308L9.73354 9.23382C9.73354 9.67327 9.44475 9.97461 8.99275 9.97461H2.68345C2.25656 9.97461 1.9615 9.65444 1.9615 9.27776C1.9615 8.90737 2.28167 8.59975 2.66462 8.59975H4.91839L7.58022 8.68764L6.43764 7.68318L0.479911 1.71917C0.335519 1.5685 0.253906 1.39272 0.253906 1.21694C0.253906 0.84654 0.592913 0.494978 0.975865 0.494978C1.15165 0.494978 1.32743 0.570313 1.4781 0.714705L7.4421 6.67871L8.45912 7.82129L8.3524 5.27246V2.91197C8.3524 2.52274 8.66002 2.19629 9.04297 2.19629C9.41964 2.19629 9.73982 2.51646 9.73982 2.9308Z" fill="#353C40"/>
<path d="M9.73982 2.9308L9.73354 9.23382C9.73354 9.67327 9.44475 9.97461 8.99275 9.97461H2.68345C2.25656 9.97461 1.9615 9.65444 1.9615 9.27776C1.9615 8.90737 2.28167 8.59975 2.66462 8.59975H4.91839L7.58022 8.68764L6.43764 7.68318L0.479911 1.71917C0.335519 1.5685 0.253906 1.39272 0.253906 1.21694C0.253906 0.84654 0.592913 0.494978 0.975865 0.494978C1.15165 0.494978 1.32743 0.570313 1.4781 0.714705L7.4421 6.67871L8.45912 7.82129L8.3524 5.27246V2.91197C8.3524 2.52274 8.66002 2.19629 9.04297 2.19629C9.41964 2.19629 9.73982 2.51646 9.73982 2.9308Z" stroke="#353C40"/>
</svg>
