<svg width="29" height="22" viewBox="0 0 29 22" fill="none" xmlns="http://www.w3.org/2000/svg">
<path d="M25.2178 4.11113C28.9233 7.8167 28.9233 13.8406 25.2178 17.5462C21.5122 21.2517 15.4883 21.2517 11.7827 17.5462C11.5265 17.29 11.5265 16.865 11.7827 16.6088C12.0389 16.3526 12.4639 16.3526 12.7201 16.6088C15.907 19.7957 21.0935 19.7957 24.2804 16.6088C27.4673 13.4219 27.4673 8.23537 24.2804 5.04846C21.0935 1.86154 15.907 1.86154 12.7201 5.04846C12.4639 5.30466 12.0389 5.30466 11.7827 5.04846C11.5265 4.79225 11.5265 4.36733 11.7827 4.11113C15.4883 0.405561 21.5122 0.405561 25.2178 4.11113Z" fill="#FF0000"/>
<path d="M21.7461 14.2679C21.6323 14.2679 21.5186 14.2416 21.4136 14.1716L18.7011 12.5529C18.0273 12.1504 17.5286 11.2666 17.5286 10.4879V6.90039C17.5286 6.54164 17.8261 6.24414 18.1848 6.24414C18.5436 6.24414 18.8411 6.54164 18.8411 6.90039V10.4879C18.8411 10.8029 19.1036 11.2666 19.3748 11.4241L22.0873 13.0429C22.4023 13.2266 22.4986 13.6291 22.3148 13.9441C22.1836 14.1541 21.9648 14.2679 21.7461 14.2679Z" fill="#FF0000"/>
<path d="M12.1008 5.32812H6.10083C5.69083 5.32812 5.35083 4.98812 5.35083 4.57812C5.35083 4.16813 5.69083 3.82812 6.10083 3.82812H12.1008C12.5108 3.82812 12.8508 4.16813 12.8508 4.57812C12.8508 4.98812 12.5108 5.32812 12.1008 5.32812Z" fill="#FF0000"/>
<path d="M12.0508 17.7793H1.05078C0.640781 17.7793 0.300781 17.4393 0.300781 17.0293C0.300781 16.6193 0.640781 16.2793 1.05078 16.2793H12.0508C12.4608 16.2793 12.8008 16.6193 12.8008 17.0293C12.8008 17.4393 12.4608 17.7793 12.0508 17.7793Z" fill="#FF0000"/>
<path d="M10 9.62891H4C3.59 9.62891 3.25 9.28891 3.25 8.87891C3.25 8.46891 3.59 8.12891 4 8.12891H10C10.41 8.12891 10.75 8.46891 10.75 8.87891C10.75 9.28891 10.41 9.62891 10 9.62891Z" fill="#FF0000"/>
<path d="M11.0007 13.7285H3.00073C2.59073 13.7285 2.25073 13.3885 2.25073 12.9785C2.25073 12.5685 2.59073 12.2285 3.00073 12.2285H11.0007C11.4107 12.2285 11.7507 12.5685 11.7507 12.9785C11.7507 13.3885 11.4107 13.7285 11.0007 13.7285Z" fill="#FF0000"/>
</svg>
