<svg width="22" height="23" viewBox="0 0 22 23" fill="none" xmlns="http://www.w3.org/2000/svg">
<path d="M20.1666 9.5944C19.7908 9.5944 19.4791 9.28273 19.4791 8.9069V7.07357C19.4791 4.70857 17.9483 3.17773 15.5833 3.17773H6.41658C4.05159 3.17773 2.52075 4.70857 2.52075 7.07357V8.9069C2.52075 9.28273 2.20909 9.5944 1.83325 9.5944C1.45742 9.5944 1.14575 9.28273 1.14575 8.9069V7.07357C1.14575 3.92023 3.26325 1.80273 6.41658 1.80273H15.5833C18.7366 1.80273 20.8541 3.92023 20.8541 7.07357V8.9069C20.8541 9.28273 20.5424 9.5944 20.1666 9.5944Z" fill="#FFA901"/>
<path d="M15.5833 21.5104H6.41658C3.26325 21.5104 1.14575 19.3929 1.14575 16.2396V14.4062C1.14575 14.0304 1.45742 13.7188 1.83325 13.7188C2.20909 13.7188 2.52075 14.0304 2.52075 14.4062V16.2396C2.52075 18.6046 4.05159 20.1354 6.41658 20.1354H15.5833C17.9483 20.1354 19.4791 18.6046 19.4791 16.2396V14.4062C19.4791 14.0304 19.7908 13.7188 20.1666 13.7188C20.5424 13.7188 20.8541 14.0304 20.8541 14.4062V16.2396C20.8541 19.3929 18.7366 21.5104 15.5833 21.5104Z" fill="#FFA901"/>
<path d="M11.0001 12.646C10.8809 12.646 10.7617 12.6184 10.6517 12.5543L5.7934 9.74926C5.4634 9.55676 5.35339 9.13513 5.54589 8.80513C5.73839 8.47513 6.16006 8.36511 6.4809 8.55761L10.9909 11.1701L15.4734 8.57596C15.8034 8.38346 16.2251 8.50259 16.4084 8.82342C16.6009 9.15342 16.4817 9.57511 16.1609 9.76761L11.3392 12.5543C11.2384 12.6093 11.1192 12.646 11.0001 12.646Z" fill="#FFA901"/>
<path d="M11 17.6332C10.6242 17.6332 10.3125 17.3215 10.3125 16.9457V11.959C10.3125 11.5832 10.6242 11.2715 11 11.2715C11.3758 11.2715 11.6875 11.5832 11.6875 11.959V16.9457C11.6875 17.3215 11.3758 17.6332 11 17.6332Z" fill="#FFA901"/>
<path d="M11.0002 17.8435C10.4685 17.8435 9.94604 17.7243 9.52438 17.4952L6.59105 15.8635C5.71105 15.3777 5.03271 14.2135 5.03271 13.2052V10.0976C5.03271 9.09848 5.72021 7.93435 6.59105 7.43935L9.52438 5.80766C10.3677 5.34016 11.6327 5.34016 12.476 5.80766L15.4094 7.43935C16.2894 7.92518 16.9677 9.08932 16.9677 10.0976V13.2052C16.9677 14.2043 16.2802 15.3685 15.4094 15.8635L12.476 17.4952C12.0544 17.7243 11.5319 17.8435 11.0002 17.8435ZM10.1935 7.01766L7.26021 8.6493C6.81104 8.8968 6.40771 9.59348 6.40771 10.0976V13.2052C6.40771 13.7185 6.81104 14.406 7.26021 14.6535L10.1935 16.2851C10.6152 16.5143 11.3852 16.5143 11.8069 16.2851L14.7402 14.6535C15.1894 14.406 15.5927 13.7093 15.5927 13.2052V10.0976C15.5927 9.58432 15.1894 8.8968 14.7402 8.6493L11.8069 7.01766C11.3852 6.7885 10.6152 6.7885 10.1935 7.01766Z" fill="#FFA901"/>
</svg>
