<svg width="37" height="32" viewBox="0 0 37 32" fill="none" xmlns="http://www.w3.org/2000/svg">
<path d="M26.7902 0C23.3895 0 20.412 1.46197 18.556 3.93316C16.7 1.46197 13.7225 0 10.3218 0C7.61473 0.00305028 5.01944 1.07945 3.10527 2.99306C1.1911 4.90667 0.114379 7.5012 0.111328 10.2075C0.111328 21.732 17.2039 31.0603 17.9318 31.4455C18.1237 31.5487 18.3382 31.6027 18.556 31.6027C18.7739 31.6027 18.9883 31.5487 19.1802 31.4455C19.9081 31.0603 37.0007 21.732 37.0007 10.2075C36.9976 7.5012 35.9209 4.90667 34.0067 2.99306C32.0926 1.07945 29.4973 0.00305028 26.7902 0ZM18.556 28.7784C15.5489 27.0267 2.74628 19.0468 2.74628 10.2075C2.7489 8.1997 3.54787 6.27492 4.96798 4.85523C6.38809 3.43553 8.31343 2.63679 10.3218 2.63418C13.5249 2.63418 16.2142 4.33981 17.3373 7.07936C17.4366 7.32093 17.6055 7.52755 17.8224 7.67295C18.0394 7.81836 18.2948 7.896 18.556 7.896C18.8172 7.896 19.0726 7.81836 19.2896 7.67295C19.5066 7.52755 19.6754 7.32093 19.7747 7.07936C20.8978 4.33487 23.5871 2.63418 26.7902 2.63418C28.7986 2.63679 30.7239 3.43553 32.144 4.85523C33.5641 6.27492 34.3631 8.1997 34.3657 10.2075C34.3657 19.0336 21.5599 27.025 18.556 28.7784Z" fill="#40444D"/>
</svg>
