<svg width="22" height="22" viewBox="0 0 22 22" fill="none" xmlns="http://www.w3.org/2000/svg">
<path d="M14.9236 20.2588H11.4402C10.9269 20.2588 9.80857 20.1029 9.21274 19.5071L6.43524 17.3621L7.27857 16.2713L10.1202 18.4713C10.3494 18.6913 10.9269 18.8746 11.4402 18.8746H14.9236C15.7486 18.8746 16.6377 18.2146 16.8211 17.4721L19.0394 10.7346C19.1861 10.3313 19.1586 9.96461 18.9661 9.69877C18.7644 9.41461 18.3977 9.24961 17.9486 9.24961H14.2819C13.8052 9.24961 13.3652 9.04794 13.0627 8.6996C12.7511 8.3421 12.6136 7.86544 12.6869 7.37044L13.1452 4.42794C13.2552 3.9146 12.9069 3.33711 12.4119 3.17211C11.9627 3.00711 11.3852 3.24544 11.1836 3.53877L7.42524 9.13044L6.28857 8.36961L10.0469 2.77794C10.6244 1.91627 11.8894 1.50377 12.8794 1.87961C14.0252 2.25544 14.7586 3.52044 14.5019 4.69377L14.0527 7.58127C14.0436 7.64544 14.0436 7.73711 14.1077 7.81044C14.1536 7.85627 14.2177 7.88377 14.2911 7.88377H17.9577C18.8561 7.88377 19.6352 8.2596 20.0936 8.91044C20.5427 9.54294 20.6344 10.3771 20.3411 11.1838L18.1502 17.8571C17.8111 19.1863 16.3994 20.2588 14.9236 20.2588Z" fill="#292D32"/>
<path d="M4.93164 19.2499H4.01497C2.31914 19.2499 1.49414 18.4524 1.49414 16.8207V7.83737C1.49414 6.2057 2.31914 5.4082 4.01497 5.4082H4.93164C6.62747 5.4082 7.45247 6.2057 7.45247 7.83737V16.8207C7.45247 18.4524 6.62747 19.2499 4.93164 19.2499ZM4.01497 6.7832C3.01581 6.7832 2.86914 7.02154 2.86914 7.83737V16.8207C2.86914 17.6365 3.01581 17.8749 4.01497 17.8749H4.93164C5.93081 17.8749 6.07747 17.6365 6.07747 16.8207V7.83737C6.07747 7.02154 5.93081 6.7832 4.93164 6.7832H4.01497Z" fill="#292D32"/>
</svg>
