<svg width="12" height="13" viewBox="0 0 12 13" fill="none" xmlns="http://www.w3.org/2000/svg">
<path d="M8.45 10.0059C8.295 10.0059 8.14 9.96085 8.005 9.87085L7.525 9.55585C7.39 9.46585 7.325 9.29587 7.37 9.14087C7.405 9.02587 7.42 8.89084 7.42 8.74084V6.70584C7.42 5.89084 6.91 5.38086 6.095 5.38086H2.7C2.64 5.38086 2.585 5.38587 2.53 5.39087C2.425 5.39587 2.325 5.36086 2.245 5.29086C2.165 5.22086 2.125 5.12087 2.125 5.01587V3.63086C2.125 2.16086 3.155 1.13086 4.625 1.13086H8.875C10.345 1.13086 11.375 2.16086 11.375 3.63086V6.18085C11.375 6.90585 11.13 7.54584 10.68 7.98584C10.32 8.35084 9.82 8.58585 9.25 8.65585V9.21085C9.25 9.51085 9.085 9.78087 8.825 9.92087C8.705 9.97587 8.575 10.0059 8.45 10.0059ZM8.15 9.06586L8.475 9.25085C8.505 9.23585 8.505 9.21084 8.505 9.20584V8.30084C8.505 8.09584 8.675 7.92584 8.88 7.92584C9.405 7.92584 9.85 7.76087 10.155 7.45087C10.47 7.14087 10.63 6.70084 10.63 6.17584V3.62585C10.63 2.56085 9.945 1.87585 8.88 1.87585H4.63C3.565 1.87585 2.88 2.56085 2.88 3.62585V4.62585H6.1C7.32 4.62585 8.175 5.48087 8.175 6.70087V8.73584C8.17 8.85084 8.165 8.96086 8.15 9.06586Z" fill="#F9F9F9"/>
<path d="M3.035 11.875C2.925 11.875 2.81 11.85 2.705 11.795C2.47 11.67 2.325 11.43 2.325 11.16V10.78C1.885 10.71 1.495 10.525 1.205 10.235C0.825002 9.85499 0.625 9.33499 0.625 8.73499V6.70001C0.625 5.57001 1.365 4.74001 2.465 4.63501C2.545 4.63001 2.62 4.625 2.7 4.625H6.095C7.315 4.625 8.17 5.48001 8.17 6.70001V8.73499C8.17 8.95499 8.145 9.16 8.09 9.345C7.865 10.245 7.1 10.81 6.095 10.81H4.85L3.435 11.75C3.315 11.835 3.175 11.875 3.035 11.875ZM2.7 5.375C2.64 5.375 2.585 5.38001 2.53 5.38501C1.81 5.45001 1.375 5.94501 1.375 6.70001V8.73499C1.375 9.13499 1.5 9.46999 1.735 9.70499C1.965 9.93499 2.3 10.06 2.7 10.06C2.905 10.06 3.075 10.23 3.075 10.435V11.09L4.525 10.125C4.585 10.085 4.66 10.06 4.735 10.06H6.095C6.755 10.06 7.22 9.72999 7.365 9.14999C7.4 9.02499 7.42 8.88499 7.42 8.73499V6.70001C7.42 5.88501 6.91 5.375 6.095 5.375H2.7Z" fill="#F9F9F9"/>
</svg>
