<svg width="22" height="23" viewBox="0 0 22 23" fill="none" xmlns="http://www.w3.org/2000/svg">
<path d="M11.9166 14.1777H1.83325C1.45742 14.1777 1.14575 13.8661 1.14575 13.4902V6.1569C1.14575 3.75523 3.09825 1.80273 5.49992 1.80273H13.7499C14.1258 1.80273 14.4374 2.1144 14.4374 2.49023V11.6569C14.4374 13.0502 13.3099 14.1777 11.9166 14.1777ZM2.52075 12.8027H11.9166C12.5491 12.8027 13.0624 12.2894 13.0624 11.6569V3.17773H5.49992C3.85909 3.17773 2.52075 4.51607 2.52075 6.1569V12.8027Z" fill="#353C40"/>
<path d="M17.4166 19.6777H16.4999C16.1241 19.6777 15.8124 19.3661 15.8124 18.9902C15.8124 18.3577 15.2991 17.8444 14.6666 17.8444C14.0341 17.8444 13.5208 18.3577 13.5208 18.9902C13.5208 19.3661 13.2091 19.6777 12.8333 19.6777H9.16658C8.79075 19.6777 8.47908 19.3661 8.47908 18.9902C8.47908 18.3577 7.96575 17.8444 7.33325 17.8444C6.70075 17.8444 6.18742 18.3577 6.18742 18.9902C6.18742 19.3661 5.87575 19.6777 5.49992 19.6777H4.58325C2.68575 19.6777 1.14575 18.1377 1.14575 16.2402V13.4902C1.14575 13.1144 1.45742 12.8027 1.83325 12.8027H11.9166C12.5491 12.8027 13.0624 12.2894 13.0624 11.6569V5.24023C13.0624 4.8644 13.3741 4.55273 13.7499 4.55273H15.4366C16.3441 4.55273 17.1783 5.03858 17.6274 5.82691L19.1949 8.56774C19.3141 8.77857 19.3141 9.04441 19.1949 9.25524C19.0758 9.46607 18.8466 9.5944 18.5991 9.5944H17.4166C17.2883 9.5944 17.1874 9.69523 17.1874 9.82357V12.5736C17.1874 12.7019 17.2883 12.8027 17.4166 12.8027H20.1666C20.5424 12.8027 20.8541 13.1144 20.8541 13.4902V16.2402C20.8541 18.1377 19.3141 19.6777 17.4166 19.6777ZM17.0957 18.3027H17.4166C18.5533 18.3027 19.4791 17.3769 19.4791 16.2402V14.1777H17.4166C16.5366 14.1777 15.8124 13.4536 15.8124 12.5736V9.82357C15.8124 8.94357 16.5274 8.2194 17.4166 8.2194L16.4357 6.50524C16.2341 6.14774 15.8491 5.92773 15.4366 5.92773H14.4374V11.6569C14.4374 13.0502 13.3099 14.1777 11.9166 14.1777H2.52075V16.2402C2.52075 17.3769 3.44659 18.3027 4.58325 18.3027H4.90409C5.20659 17.2486 6.17825 16.4694 7.33325 16.4694C8.48825 16.4694 9.45991 17.2486 9.76241 18.3027H12.2466C12.5491 17.2486 13.5208 16.4694 14.6758 16.4694C15.8308 16.4694 16.7932 17.2486 17.0957 18.3027Z" fill="#353C40"/>
<path d="M7.33333 21.5104C5.94 21.5104 4.8125 20.3829 4.8125 18.9896C4.8125 17.5962 5.94 16.4688 7.33333 16.4688C8.72667 16.4688 9.85417 17.5962 9.85417 18.9896C9.85417 20.3829 8.72667 21.5104 7.33333 21.5104ZM7.33333 17.8437C6.70083 17.8437 6.1875 18.3571 6.1875 18.9896C6.1875 19.6221 6.70083 20.1354 7.33333 20.1354C7.96583 20.1354 8.47917 19.6221 8.47917 18.9896C8.47917 18.3571 7.96583 17.8437 7.33333 17.8437Z" fill="#353C40"/>
<path d="M14.6666 21.5104C13.2733 21.5104 12.1458 20.3829 12.1458 18.9896C12.1458 17.5962 13.2733 16.4688 14.6666 16.4688C16.0599 16.4688 17.1874 17.5962 17.1874 18.9896C17.1874 20.3829 16.0599 21.5104 14.6666 21.5104ZM14.6666 17.8437C14.0341 17.8437 13.5208 18.3571 13.5208 18.9896C13.5208 19.6221 14.0341 20.1354 14.6666 20.1354C15.2991 20.1354 15.8124 19.6221 15.8124 18.9896C15.8124 18.3571 15.2991 17.8437 14.6666 17.8437Z" fill="#353C40"/>
<path d="M20.1667 14.1771H17.4167C16.5367 14.1771 15.8125 13.4529 15.8125 12.5729V9.82292C15.8125 8.94292 16.5367 8.21875 17.4167 8.21875H18.5992C18.8467 8.21875 19.0758 8.34709 19.195 8.56709L20.7625 11.3171C20.8175 11.4179 20.8542 11.5371 20.8542 11.6562V13.4896C20.8542 13.8654 20.5425 14.1771 20.1667 14.1771ZM17.4167 9.59375C17.2883 9.59375 17.1875 9.69458 17.1875 9.82292V12.5729C17.1875 12.7012 17.2883 12.8021 17.4167 12.8021H19.4792V11.8396L18.1958 9.59375H17.4167Z" fill="#353C40"/>
</svg>
