<svg width="12" height="12" viewBox="0 0 12 12" fill="none" xmlns="http://www.w3.org/2000/svg">
<path fill-rule="evenodd" clip-rule="evenodd" d="M4.4902 10.9046C4.9152 11.2196 5.4552 11.3796 6.0002 11.3796C6.5452 11.3796 7.0852 11.2196 7.5052 10.9046L9.6552 9.29961C10.2252 8.87461 10.6702 7.9896 10.6702 7.2796V3.56461C10.6702 2.79461 10.1052 1.97461 9.3802 1.70461L6.8802 0.769609C6.3852 0.584609 5.6052 0.584609 5.1102 0.769609L2.6152 1.70461C1.8902 1.97461 1.3252 2.79461 1.3252 3.56461V7.2796C1.3252 7.9896 1.77019 8.87461 2.34019 9.29961L4.4902 10.9046ZM5.99995 5.83459H5.96495C5.23995 5.81459 4.70996 5.25959 4.70996 4.58459C4.70996 3.89459 5.27495 3.32959 5.96495 3.32959C6.65495 3.32959 7.21996 3.89459 7.21996 4.58459C7.21496 5.2646 6.68495 5.81458 6.00995 5.83958C6.00496 5.83459 6.00495 5.83459 5.99999 5.83459H5.99995ZM5.96495 4.07959C5.68495 4.07959 5.45996 4.30459 5.45996 4.58459C5.45996 4.85959 5.67496 5.07958 5.94496 5.08958H5.99995C6.26495 5.07458 6.46996 4.85459 6.46996 4.58459C6.47496 4.30459 6.24495 4.07959 5.96495 4.07959ZM6.0004 8.67449C5.5704 8.67449 5.1354 8.5595 4.8004 8.3345C4.4654 8.1145 4.27539 7.7895 4.27539 7.4445C4.27539 7.0995 4.4654 6.7745 4.8004 6.54949C5.4754 6.09949 6.53039 6.1045 7.20039 6.54949C7.53539 6.7695 7.7254 7.09449 7.7254 7.43949C7.7254 7.78449 7.53539 8.1095 7.20039 8.3345C6.86539 8.5595 6.4304 8.67449 6.0004 8.67449ZM5.21539 7.16949C5.09039 7.24949 5.02039 7.34949 5.02539 7.43949C5.02539 7.52949 5.09539 7.6295 5.21539 7.7095C5.63539 7.9895 6.3654 7.9895 6.7854 7.7095C6.9104 7.6295 6.98039 7.52949 6.98039 7.43949C6.98039 7.34949 6.91039 7.24949 6.79039 7.16949C6.37039 6.89449 5.63539 6.89449 5.21539 7.16949Z" fill="#F9F9F9"/>
</svg>
