<svg width="22" height="22" viewBox="0 0 22 22" fill="none" xmlns="http://www.w3.org/2000/svg">
<path d="M9.67979 20.8176C8.68979 20.8176 7.69063 20.5335 6.92063 19.956L2.99729 17.0227C1.96146 16.2527 1.15479 14.6302 1.15479 13.3285V6.536C1.15479 5.1335 2.18146 3.63932 3.50146 3.14432L8.06646 1.43016C8.97396 1.09099 10.3948 1.09099 11.3023 1.43016L15.8581 3.14432C16.9306 3.54765 17.8381 4.62016 18.1315 5.81182C18.1773 6.01349 18.1315 6.2335 18.0031 6.3985C17.8748 6.5635 17.6731 6.66432 17.4623 6.66432L10.2115 6.67349C9.04729 6.74682 8.76312 6.93934 8.76312 8.63517V13.6127C8.76312 15.3635 8.99229 15.5835 10.7706 15.5835H16.1973C16.4815 15.5835 16.7381 15.7577 16.839 16.0235C16.9398 16.2893 16.8665 16.5918 16.6556 16.7843C16.5548 16.8668 16.4723 16.9493 16.3715 17.0227L12.4481 19.9652C11.6598 20.5335 10.6698 20.8176 9.67979 20.8176ZM9.67979 2.55767C9.26729 2.55767 8.84563 2.61267 8.54313 2.73184L3.97812 4.446C3.20812 4.73933 2.52062 5.72015 2.52062 6.55432V13.3468C2.52062 14.2085 3.12563 15.4185 3.81313 15.9318L7.73646 18.8651C8.79063 19.6443 10.5598 19.6443 11.614 18.8651L14.1531 16.9677H10.7615C8.23146 16.9677 7.37896 16.1243 7.37896 13.6218V8.64432C7.37896 6.69182 7.84645 5.45433 10.1656 5.30767L10.7615 5.29849H16.399C16.124 4.90432 15.7573 4.59266 15.3723 4.446L10.8165 2.73184C10.5048 2.61267 10.0923 2.55767 9.67979 2.55767Z" fill="#292D32"/>
<path d="M20.1664 10.9727H8.06641C7.69057 10.9727 7.37891 10.661 7.37891 10.2852C7.37891 9.90932 7.69057 9.59766 8.06641 9.59766H20.1664C20.5422 9.59766 20.8539 9.90932 20.8539 10.2852C20.8539 10.661 20.5422 10.9727 20.1664 10.9727Z" fill="#292D32"/>
<path d="M17.4714 16.9582H10.7614C8.23141 16.9582 7.37891 16.1149 7.37891 13.6124V8.63492C7.37891 6.68242 7.8464 5.4449 10.1656 5.29824L10.7614 5.28906H17.4714C20.0014 5.28906 20.8539 6.13242 20.8539 8.63492V13.7224C20.8356 16.1424 19.9831 16.9582 17.4714 16.9582ZM10.7614 6.66406L10.2022 6.67324C9.03807 6.74657 8.75391 6.93908 8.75391 8.63492V13.6124C8.75391 15.3632 8.98308 15.5832 10.7614 15.5832H17.4714C19.2222 15.5832 19.4606 15.3541 19.4789 13.7224V8.64407C19.4789 6.89323 19.2497 6.67324 17.4714 6.67324H10.7614V6.66406Z" fill="#292D32"/>
<path d="M11.596 14.6758H10.3677C9.99184 14.6758 9.68018 14.3641 9.68018 13.9883C9.68018 13.6124 9.99184 13.3008 10.3677 13.3008H11.596C11.9718 13.3008 12.2835 13.6124 12.2835 13.9883C12.2835 14.3641 11.981 14.6758 11.596 14.6758Z" fill="#292D32"/>
<path d="M16.5185 14.6758H13.521C13.1452 14.6758 12.8335 14.3641 12.8335 13.9883C12.8335 13.6124 13.1452 13.3008 13.521 13.3008H16.5185C16.8943 13.3008 17.206 13.6124 17.206 13.9883C17.206 14.3641 16.9035 14.6758 16.5185 14.6758Z" fill="#292D32"/>
</svg>
