<svg width="20" height="20" viewBox="0 0 20 20" fill="none" xmlns="http://www.w3.org/2000/svg">
<path d="M10.8334 9.79219C10.675 9.79219 10.5167 9.73385 10.3917 9.60885C10.15 9.36719 10.15 8.96719 10.3917 8.72552L17.225 1.89219C17.4667 1.65052 17.8667 1.65052 18.1084 1.89219C18.35 2.13385 18.35 2.53385 18.1084 2.77552L11.275 9.60885C11.15 9.73385 10.9917 9.79219 10.8334 9.79219Z" fill="#292D32"/>
<path d="M18.3333 6.29102C17.9916 6.29102 17.7083 6.00768 17.7083 5.66602V2.29102H14.3333C13.9916 2.29102 13.7083 2.00768 13.7083 1.66602C13.7083 1.32435 13.9916 1.04102 14.3333 1.04102H18.3333C18.6749 1.04102 18.9583 1.32435 18.9583 1.66602V5.66602C18.9583 6.00768 18.6749 6.29102 18.3333 6.29102Z" fill="#292D32"/>
<path d="M12.5001 18.9577H7.50008C2.97508 18.9577 1.04175 17.0243 1.04175 12.4993V7.49935C1.04175 2.97435 2.97508 1.04102 7.50008 1.04102H9.16675C9.50842 1.04102 9.79175 1.32435 9.79175 1.66602C9.79175 2.00768 9.50842 2.29102 9.16675 2.29102H7.50008C3.65841 2.29102 2.29175 3.65768 2.29175 7.49935V12.4993C2.29175 16.341 3.65841 17.7077 7.50008 17.7077H12.5001C16.3417 17.7077 17.7084 16.341 17.7084 12.4993V10.8327C17.7084 10.491 17.9917 10.2077 18.3334 10.2077C18.6751 10.2077 18.9584 10.491 18.9584 10.8327V12.4993C18.9584 17.0243 17.0251 18.9577 12.5001 18.9577Z" fill="#292D32"/>
</svg>
