<svg width="22" height="22" viewBox="0 0 22 22" fill="none" xmlns="http://www.w3.org/2000/svg">
<path fill-rule="evenodd" clip-rule="evenodd" d="M8.23194 19.9928C9.01111 20.5703 10.0011 20.8636 11.0003 20.8636C11.9994 20.8636 12.9894 20.5703 13.7503 19.9836L17.6919 17.0411C18.7369 16.262 19.5528 14.6395 19.5528 13.3378V6.52698C19.5528 5.11531 18.5169 3.61198 17.1878 3.11698L12.6136 1.40281C11.7061 1.06365 10.2761 1.06365 9.36861 1.40281L4.79444 3.11698C3.46528 3.61198 2.42944 5.11531 2.42944 6.52698V13.347C2.42944 14.6395 3.24528 16.2711 4.29028 17.0503L8.23194 19.9928ZM9.28597 12.8425C9.42347 12.98 9.59763 13.0442 9.7718 13.0442C9.94597 13.0442 10.1201 12.98 10.2576 12.8425L14.1993 8.90086C14.4651 8.63503 14.4651 8.19503 14.1993 7.92919C13.9335 7.66336 13.4935 7.66336 13.2276 7.92919L9.7718 11.385L8.7818 10.395C8.51597 10.1292 8.07597 10.1292 7.81013 10.395C7.5443 10.6609 7.5443 11.1009 7.81013 11.3667L9.28597 12.8425Z" fill="#14DC5A"/>
</svg>
