<svg width="22" height="22" viewBox="0 0 22 22" fill="none" xmlns="http://www.w3.org/2000/svg">
<path d="M16.1881 20.7818C15.7023 20.7818 15.0789 20.6259 14.2998 20.1676L11.5589 18.5451C11.2748 18.3801 10.7248 18.3801 10.4498 18.5451L7.69978 20.1676C6.07728 21.1301 5.12395 20.7451 4.69312 20.4334C4.27145 20.1218 3.61145 19.3243 4.04228 17.4909L4.69312 14.6768C4.76645 14.3834 4.61978 13.8793 4.39978 13.6593L2.12645 11.3859C0.989782 10.2493 1.08145 9.27761 1.23728 8.80094C1.39312 8.32427 1.88812 7.48094 3.46478 7.2151L6.38895 6.72927C6.66395 6.68344 7.05812 6.3901 7.17728 6.1426L8.79978 2.90677C9.53312 1.43094 10.4956 1.21094 10.9998 1.21094C11.5039 1.21094 12.4664 1.43094 13.1998 2.90677L14.8131 6.13344C14.9414 6.38094 15.3356 6.67427 15.6106 6.7201L18.5348 7.20594C20.1206 7.47177 20.6156 8.31511 20.7623 8.79177C20.9089 9.26844 21.0006 10.2401 19.8731 11.3768L17.5998 13.6593C17.3798 13.8793 17.2423 14.3743 17.3064 14.6768L17.9573 17.4909C18.3789 19.3243 17.7281 20.1218 17.3064 20.4334C17.0773 20.5984 16.7106 20.7818 16.1881 20.7818ZM10.9998 17.0418C11.4489 17.0418 11.8981 17.1518 12.2556 17.3626L14.9964 18.9851C15.7939 19.4618 16.2981 19.4618 16.4906 19.3243C16.6831 19.1868 16.8206 18.7009 16.6189 17.8026L15.9681 14.9884C15.7939 14.2276 16.0781 13.2468 16.6281 12.6876L18.9014 10.4143C19.3506 9.96511 19.5523 9.52511 19.4606 9.22261C19.3598 8.92011 18.9381 8.67261 18.3148 8.57177L15.3906 8.08594C14.6848 7.96677 13.9148 7.39844 13.5939 6.75677L11.9806 3.5301C11.6873 2.94344 11.3206 2.5951 10.9998 2.5951C10.6789 2.5951 10.3123 2.94344 10.0281 3.5301L8.40562 6.75677C8.08478 7.39844 7.31478 7.96677 6.60895 8.08594L3.69395 8.57177C3.07062 8.67261 2.64895 8.92011 2.54812 9.22261C2.44728 9.52511 2.65812 9.97427 3.10728 10.4143L5.38062 12.6876C5.93062 13.2376 6.21478 14.2276 6.04062 14.9884L5.38978 17.8026C5.17895 18.7101 5.32562 19.1868 5.51812 19.3243C5.71062 19.4618 6.20562 19.4526 7.01228 18.9851L9.75312 17.3626C10.1014 17.1518 10.5506 17.0418 10.9998 17.0418Z" fill="#292D32"/>
</svg>
