<svg width="15" height="11" viewBox="0 0 15 11" fill="none" xmlns="http://www.w3.org/2000/svg">
<path d="M0 0.647059C0 0.475448 0.0658481 0.310866 0.183058 0.189519C0.300269 0.0681722 0.45924 0 0.625 0H14.375C14.5408 0 14.6997 0.0681722 14.8169 0.189519C14.9342 0.310866 15 0.475448 15 0.647059C15 0.818669 14.9342 0.983251 14.8169 1.1046C14.6997 1.22595 14.5408 1.29412 14.375 1.29412H0.625C0.45924 1.29412 0.300269 1.22595 0.183058 1.1046C0.0658481 0.983251 0 0.818669 0 0.647059ZM14.375 3.23529H0.625C0.45924 3.23529 0.300269 3.30347 0.183058 3.42481C0.0658481 3.54616 0 3.71074 0 3.88235C0 4.05396 0.0658481 4.21855 0.183058 4.33989C0.300269 4.46124 0.45924 4.52941 0.625 4.52941H14.375C14.5408 4.52941 14.6997 4.46124 14.8169 4.33989C14.9342 4.21855 15 4.05396 15 3.88235C15 3.71074 14.9342 3.54616 14.8169 3.42481C14.6997 3.30347 14.5408 3.23529 14.375 3.23529ZM14.375 6.47059H0.625C0.45924 6.47059 0.300269 6.53876 0.183058 6.66011C0.0658481 6.78145 0 6.94604 0 7.11765C0 7.28926 0.0658481 7.45384 0.183058 7.57519C0.300269 7.69653 0.45924 7.76471 0.625 7.76471H14.375C14.5408 7.76471 14.6997 7.69653 14.8169 7.57519C14.9342 7.45384 15 7.28926 15 7.11765C15 6.94604 14.9342 6.78145 14.8169 6.66011C14.6997 6.53876 14.5408 6.47059 14.375 6.47059ZM14.375 9.70588H0.625C0.45924 9.70588 0.300269 9.77405 0.183058 9.8954C0.0658481 10.0167 0 10.1813 0 10.3529C0 10.5246 0.0658481 10.6891 0.183058 10.8105C0.300269 10.9318 0.45924 11 0.625 11H14.375C14.5408 11 14.6997 10.9318 14.8169 10.8105C14.9342 10.6891 15 10.5246 15 10.3529C15 10.1813 14.9342 10.0167 14.8169 9.8954C14.6997 9.77405 14.5408 9.70588 14.375 9.70588Z" fill="#353C40"/>
</svg>
