<svg width="21" height="16" viewBox="0 0 21 16" fill="none" xmlns="http://www.w3.org/2000/svg">
<path d="M13.8232 7.14863L11.0045 9.60863L11.8488 13.2711C11.8935 13.4626 11.8808 13.663 11.8122 13.8472C11.7436 14.0315 11.6222 14.1914 11.4632 14.3071C11.3042 14.4227 11.1146 14.489 10.9182 14.4975C10.7218 14.506 10.5272 14.4564 10.3588 14.3549L7.16446 12.4174L3.97696 14.3549C3.80856 14.4564 3.61399 14.506 3.41757 14.4975C3.22114 14.489 3.03158 14.4227 2.87258 14.3071C2.71358 14.1914 2.5922 14.0315 2.52361 13.8472C2.45502 13.663 2.44228 13.4626 2.48696 13.2711L3.33008 9.61238L0.510707 7.14863C0.361588 7.02002 0.253759 6.85024 0.200742 6.66059C0.147726 6.47094 0.151882 6.26986 0.21269 6.08257C0.273497 5.89527 0.38825 5.7301 0.542556 5.60776C0.696863 5.48542 0.883854 5.41137 1.08008 5.39488L4.79633 5.073L6.24696 1.613C6.32271 1.43145 6.45049 1.27637 6.6142 1.16729C6.77791 1.05821 6.97023 1 7.16696 1C7.36368 1 7.55601 1.05821 7.71972 1.16729C7.88343 1.27637 8.0112 1.43145 8.08696 1.613L9.54196 5.073L13.257 5.39488C13.4532 5.41137 13.6402 5.48542 13.7945 5.60776C13.9488 5.7301 14.0635 5.89527 14.1243 6.08257C14.1852 6.26986 14.1893 6.47094 14.1363 6.66059C14.0833 6.85024 13.9755 7.02002 13.8263 7.14863H13.8232Z" fill="#353C40"/>
<path d="M18.0668 1.82203L17.262 2.55101L17.5031 3.63632C17.5158 3.69306 17.5122 3.75244 17.4926 3.80704C17.473 3.86164 17.4384 3.90904 17.393 3.94331C17.3476 3.97758 17.2935 3.9972 17.2374 3.99972C17.1813 4.00224 17.1257 3.98755 17.0777 3.95747L16.1656 3.38333L15.2555 3.95747C15.2074 3.98755 15.1518 4.00224 15.0958 3.99972C15.0397 3.9972 14.9856 3.97758 14.9402 3.94331C14.8948 3.90904 14.8601 3.86164 14.8405 3.80704C14.8209 3.75244 14.8173 3.69306 14.8301 3.63632L15.0708 2.55212L14.2658 1.82203C14.2232 1.78392 14.1924 1.73361 14.1773 1.67741C14.1622 1.62121 14.1633 1.56163 14.1807 1.50613C14.1981 1.45062 14.2308 1.40168 14.2749 1.36543C14.3189 1.32917 14.3723 1.30723 14.4284 1.30234L15.4894 1.20696L15.9036 0.181651C15.9253 0.127852 15.9617 0.0818964 16.0085 0.0495722C16.0552 0.017248 16.1101 0 16.1663 0C16.2225 0 16.2774 0.017248 16.3241 0.0495722C16.3709 0.0818964 16.4074 0.127852 16.429 0.181651L16.8444 1.20696L17.9051 1.30234C17.9612 1.30723 18.0146 1.32917 18.0586 1.36543C18.1027 1.40168 18.1354 1.45062 18.1528 1.50613C18.1702 1.56163 18.1713 1.62121 18.1562 1.67741C18.1411 1.73361 18.1103 1.78392 18.0677 1.82203H18.0668Z" fill="#353C40"/>
<path d="M18.0668 13.822L17.262 14.551L17.5031 15.6363C17.5158 15.6931 17.5122 15.7524 17.4926 15.807C17.473 15.8616 17.4384 15.909 17.393 15.9433C17.3476 15.9776 17.2935 15.9972 17.2374 15.9997C17.1813 16.0022 17.1257 15.9875 17.0777 15.9575L16.1656 15.3833L15.2555 15.9575C15.2074 15.9875 15.1518 16.0022 15.0958 15.9997C15.0397 15.9972 14.9856 15.9776 14.9402 15.9433C14.8948 15.909 14.8601 15.8616 14.8405 15.807C14.8209 15.7524 14.8173 15.6931 14.8301 15.6363L15.0708 14.5521L14.2658 13.822C14.2232 13.7839 14.1924 13.7336 14.1773 13.6774C14.1622 13.6212 14.1633 13.5616 14.1807 13.5061C14.1981 13.4506 14.2308 13.4017 14.2749 13.3654C14.3189 13.3292 14.3723 13.3072 14.4284 13.3023L15.4894 13.207L15.9036 12.1817C15.9253 12.1279 15.9617 12.0819 16.0085 12.0496C16.0552 12.0172 16.1101 12 16.1663 12C16.2225 12 16.2774 12.0172 16.3241 12.0496C16.3709 12.0819 16.4074 12.1279 16.429 12.1817L16.8444 13.207L17.9051 13.3023C17.9612 13.3072 18.0146 13.3292 18.0586 13.3654C18.1027 13.4017 18.1354 13.4506 18.1528 13.5061C18.1702 13.5616 18.1713 13.6212 18.1562 13.6774C18.1411 13.7336 18.1103 13.7839 18.0677 13.822H18.0668Z" fill="#353C40"/>
<path d="M20.0668 9.82203L19.262 10.551L19.5031 11.6363C19.5158 11.6931 19.5122 11.7524 19.4926 11.807C19.473 11.8616 19.4384 11.909 19.393 11.9433C19.3476 11.9776 19.2935 11.9972 19.2374 11.9997C19.1813 12.0022 19.1257 11.9875 19.0777 11.9575L18.1656 11.3833L17.2555 11.9575C17.2074 11.9875 17.1518 12.0022 17.0958 11.9997C17.0397 11.9972 16.9856 11.9776 16.9402 11.9433C16.8948 11.909 16.8601 11.8616 16.8405 11.807C16.8209 11.7524 16.8173 11.6931 16.8301 11.6363L17.0708 10.5521L16.2658 9.82203C16.2232 9.78392 16.1924 9.73361 16.1773 9.67741C16.1622 9.62121 16.1633 9.56163 16.1807 9.50613C16.1981 9.45062 16.2308 9.40168 16.2749 9.36543C16.3189 9.32917 16.3723 9.30723 16.4284 9.30234L17.4894 9.20696L17.9036 8.18165C17.9253 8.12785 17.9617 8.0819 18.0085 8.04957C18.0552 8.01725 18.1101 8 18.1663 8C18.2225 8 18.2774 8.01725 18.3241 8.04957C18.3709 8.0819 18.4074 8.12785 18.429 8.18165L18.8444 9.20696L19.9051 9.30234C19.9612 9.30723 20.0146 9.32917 20.0586 9.36543C20.1027 9.40168 20.1354 9.45062 20.1528 9.50613C20.1702 9.56163 20.1713 9.62121 20.1562 9.67741C20.1411 9.73361 20.1103 9.78392 20.0677 9.82203H20.0668Z" fill="#353C40"/>
<path d="M20.0668 5.82203L19.262 6.55101L19.5031 7.63632C19.5158 7.69306 19.5122 7.75244 19.4926 7.80704C19.473 7.86164 19.4384 7.90904 19.393 7.94331C19.3476 7.97758 19.2935 7.9972 19.2374 7.99972C19.1813 8.00224 19.1257 7.98755 19.0777 7.95747L18.1656 7.38333L17.2555 7.95747C17.2074 7.98755 17.1518 8.00224 17.0958 7.99972C17.0397 7.9972 16.9856 7.97758 16.9402 7.94331C16.8948 7.90904 16.8601 7.86164 16.8405 7.80704C16.8209 7.75244 16.8173 7.69306 16.8301 7.63632L17.0708 6.55212L16.2658 5.82203C16.2232 5.78392 16.1924 5.73361 16.1773 5.67741C16.1622 5.62121 16.1633 5.56163 16.1807 5.50613C16.1981 5.45062 16.2308 5.40168 16.2749 5.36543C16.3189 5.32917 16.3723 5.30723 16.4284 5.30234L17.4894 5.20696L17.9036 4.18165C17.9253 4.12785 17.9617 4.0819 18.0085 4.04957C18.0552 4.01725 18.1101 4 18.1663 4C18.2225 4 18.2774 4.01725 18.3241 4.04957C18.3709 4.0819 18.4074 4.12785 18.429 4.18165L18.8444 5.20696L19.9051 5.30234C19.9612 5.30723 20.0146 5.32917 20.0586 5.36543C20.1027 5.40168 20.1354 5.45062 20.1528 5.50613C20.1702 5.56163 20.1713 5.62121 20.1562 5.67741C20.1411 5.73361 20.1103 5.78392 20.0677 5.82203H20.0668Z" fill="#353C40"/>
</svg>
