<svg width="28" height="27" viewBox="0 0 28 27" fill="none" xmlns="http://www.w3.org/2000/svg">
<path d="M20.9638 19.9688H8.98249C7.86874 19.9688 6.79999 19.4963 6.04624 18.675C5.29249 17.8538 4.91 16.7512 5 15.6375L5.93375 4.4325C5.9675 4.08375 5.84374 3.74626 5.60749 3.48751C5.37124 3.22876 5.045 3.09375 4.69625 3.09375H2.75C2.28875 3.09375 1.90625 2.71125 1.90625 2.25C1.90625 1.78875 2.28875 1.40625 2.75 1.40625H4.70751C5.52876 1.40625 6.30499 1.755 6.85624 2.35125C7.15999 2.68875 7.38499 3.08251 7.50875 3.52126H21.56C22.6963 3.52126 23.7425 3.97125 24.5075 4.78125C25.2612 5.6025 25.6438 6.67125 25.5538 7.8075L24.9462 16.245C24.8225 18.3038 23.0225 19.9688 20.9638 19.9688ZM7.565 5.19749L6.6875 15.7725C6.63125 16.425 6.845 17.0437 7.28375 17.5275C7.7225 18.0112 8.32999 18.27 8.98249 18.27H20.9638C22.1338 18.27 23.1912 17.28 23.2812 16.11L23.8887 7.67251C23.9337 7.00876 23.72 6.37876 23.2812 5.91751C22.8425 5.44501 22.235 5.18623 21.5712 5.18623H7.565V5.19749Z" fill="#FF0000"/>
<path d="M18.7812 25.5938C17.5437 25.5938 16.5312 24.5812 16.5312 23.3438C16.5312 22.1062 17.5437 21.0938 18.7812 21.0938C20.0187 21.0938 21.0312 22.1062 21.0312 23.3438C21.0312 24.5812 20.0187 25.5938 18.7812 25.5938ZM18.7812 22.7812C18.4662 22.7812 18.2188 23.0287 18.2188 23.3438C18.2188 23.6588 18.4662 23.9062 18.7812 23.9062C19.0963 23.9062 19.3438 23.6588 19.3438 23.3438C19.3438 23.0287 19.0963 22.7812 18.7812 22.7812Z" fill="#FF0000"/>
<path d="M9.78125 25.5938C8.54375 25.5938 7.53125 24.5812 7.53125 23.3438C7.53125 22.1062 8.54375 21.0938 9.78125 21.0938C11.0187 21.0938 12.0312 22.1062 12.0312 23.3438C12.0312 24.5812 11.0187 25.5938 9.78125 25.5938ZM9.78125 22.7812C9.46625 22.7812 9.21875 23.0287 9.21875 23.3438C9.21875 23.6588 9.46625 23.9062 9.78125 23.9062C10.0963 23.9062 10.3438 23.6588 10.3438 23.3438C10.3438 23.0287 10.0963 22.7812 9.78125 22.7812Z" fill="#FF0000"/>
<path d="M24.125 9.84375H10.625C10.1637 9.84375 9.78125 9.46125 9.78125 9C9.78125 8.53875 10.1637 8.15625 10.625 8.15625H24.125C24.5863 8.15625 24.9688 8.53875 24.9688 9C24.9688 9.46125 24.5863 9.84375 24.125 9.84375Z" fill="#FF0000"/>
</svg>
