<svg width="28" height="27" viewBox="0 0 28 27" fill="none" xmlns="http://www.w3.org/2000/svg">
<path d="M22.9995 13.2186H4.99953C4.74078 13.2186 4.50453 13.1061 4.34703 12.9036C4.18953 12.7123 4.12203 12.4423 4.17828 12.1948L5.44953 6.11984C5.86578 4.15109 6.70953 2.33984 10.0508 2.33984H17.9595C21.3008 2.33984 22.1445 4.16234 22.5608 6.11984L23.832 12.2061C23.8883 12.4536 23.8208 12.7123 23.6633 12.9148C23.4945 13.1061 23.2583 13.2186 22.9995 13.2186ZM6.03453 11.5311H21.9533L20.8958 6.46859C20.5808 4.99484 20.2095 4.02734 17.9483 4.02734H10.0508C7.78953 4.02734 7.41828 4.99484 7.10328 6.46859L6.03453 11.5311Z" fill="#353C40"/>
<path d="M22.9543 25.5938H20.8393C19.0168 25.5938 18.6681 24.5475 18.4431 23.8612L18.2181 23.1863C17.9256 22.3313 17.8918 22.2188 16.8793 22.2188H11.1193C10.1068 22.2188 10.0393 22.41 9.78055 23.1863L9.55555 23.8612C9.3193 24.5587 8.9818 25.5938 7.1593 25.5938H5.0443C4.15555 25.5938 3.30055 25.2225 2.7043 24.57C2.1193 23.9288 1.83805 23.0737 1.9168 22.2188L2.5468 15.3675C2.71555 13.5112 3.21055 11.5312 6.8218 11.5312H21.1768C24.7881 11.5312 25.2718 13.5112 25.4518 15.3675L26.0818 22.2188C26.1606 23.0737 25.8793 23.9288 25.2943 24.57C24.6981 25.2225 23.8431 25.5938 22.9543 25.5938ZM11.1193 20.5312H16.8793C18.9268 20.5312 19.4106 21.4425 19.8156 22.635L20.0518 23.3325C20.2431 23.9062 20.2431 23.9175 20.8506 23.9175H22.9656C23.3818 23.9175 23.7756 23.7487 24.0568 23.445C24.3268 23.1525 24.4506 22.7812 24.4168 22.3875L23.7868 15.5363C23.6406 14.0175 23.4606 13.23 21.1993 13.23H6.8218C4.5493 13.23 4.3693 14.0175 4.2343 15.5363L3.6043 22.3875C3.57055 22.7812 3.6943 23.1525 3.9643 23.445C4.2343 23.7487 4.6393 23.9175 5.05555 23.9175H7.17055C7.77805 23.9175 7.77805 23.9062 7.9693 23.3438L8.1943 22.6575C8.47555 21.7575 8.8918 20.5312 11.1193 20.5312Z" fill="#353C40"/>
<path d="M5 9.84375H3.875C3.41375 9.84375 3.03125 9.46125 3.03125 9C3.03125 8.53875 3.41375 8.15625 3.875 8.15625H5C5.46125 8.15625 5.84375 8.53875 5.84375 9C5.84375 9.46125 5.46125 9.84375 5 9.84375Z" fill="#353C40"/>
<path d="M24.1245 9.84375H22.9995C22.5383 9.84375 22.1558 9.46125 22.1558 9C22.1558 8.53875 22.5383 8.15625 22.9995 8.15625H24.1245C24.5858 8.15625 24.9683 8.53875 24.9683 9C24.9683 9.46125 24.5858 9.84375 24.1245 9.84375Z" fill="#353C40"/>
<path d="M14 6.46875C13.5387 6.46875 13.1562 6.08625 13.1562 5.625V3.375C13.1562 2.91375 13.5387 2.53125 14 2.53125C14.4612 2.53125 14.8438 2.91375 14.8438 3.375V5.625C14.8438 6.08625 14.4612 6.46875 14 6.46875Z" fill="#353C40"/>
<path d="M15.6875 6.46875H12.3125C11.8512 6.46875 11.4688 6.08625 11.4688 5.625C11.4688 5.16375 11.8512 4.78125 12.3125 4.78125H15.6875C16.1487 4.78125 16.5312 5.16375 16.5312 5.625C16.5312 6.08625 16.1487 6.46875 15.6875 6.46875Z" fill="#353C40"/>
<path d="M10.625 17.7188H7.25C6.78875 17.7188 6.40625 17.3362 6.40625 16.875C6.40625 16.4137 6.78875 16.0312 7.25 16.0312H10.625C11.0862 16.0312 11.4688 16.4137 11.4688 16.875C11.4688 17.3362 11.0862 17.7188 10.625 17.7188Z" fill="#353C40"/>
<path d="M20.75 17.7188H17.375C16.9137 17.7188 16.5312 17.3362 16.5312 16.875C16.5312 16.4137 16.9137 16.0312 17.375 16.0312H20.75C21.2112 16.0312 21.5938 16.4137 21.5938 16.875C21.5938 17.3362 21.2112 17.7188 20.75 17.7188Z" fill="#353C40"/>
</svg>
