<svg width="28" height="27" viewBox="0 0 28 27" fill="none" xmlns="http://www.w3.org/2000/svg">
<path d="M14.1796 13.0725C14.1459 13.0725 14.1234 13.0725 14.0896 13.0725C14.0334 13.0612 13.9546 13.0612 13.8871 13.0725C10.6246 12.9712 8.16089 10.4062 8.16089 7.245C8.16089 4.0275 10.7821 1.40625 13.9996 1.40625C17.2171 1.40625 19.8384 4.0275 19.8384 7.245C19.8271 10.4062 17.3521 12.9712 14.2134 13.0725C14.2021 13.0725 14.1909 13.0725 14.1796 13.0725ZM13.9996 3.09375C11.7159 3.09375 9.84839 4.96125 9.84839 7.245C9.84839 9.495 11.6034 11.3062 13.8421 11.385C13.8984 11.3737 14.0559 11.3737 14.2021 11.385C16.4071 11.2837 18.1396 9.4725 18.1509 7.245C18.1509 4.96125 16.2834 3.09375 13.9996 3.09375Z" fill="#353C40"/>
<path d="M14.1908 25.3687C11.9858 25.3687 9.76956 24.8062 8.09331 23.6812C6.52956 22.6462 5.67456 21.2287 5.67456 19.6875C5.67456 18.1462 6.52956 16.7175 8.09331 15.6713C11.4683 13.4325 16.9358 13.4325 20.2883 15.6713C21.8408 16.7063 22.7071 18.1237 22.7071 19.665C22.7071 21.2062 21.8521 22.635 20.2883 23.6812C18.6008 24.8062 16.3958 25.3687 14.1908 25.3687ZM9.02706 17.0887C7.94706 17.8087 7.36206 18.7312 7.36206 19.6987C7.36206 20.655 7.95831 21.5775 9.02706 22.2862C11.8283 24.165 16.5533 24.165 19.3546 22.2862C20.4346 21.5662 21.0196 20.6437 21.0196 19.6762C21.0196 18.72 20.4233 17.7975 19.3546 17.0887C16.5533 15.2212 11.8283 15.2212 9.02706 17.0887Z" fill="#353C40"/>
</svg>
