<svg width="17" height="16" viewBox="0 0 17 16" fill="none" xmlns="http://www.w3.org/2000/svg">
<path d="M13.6991 7.84179L6.69908 15.3418C6.6249 15.421 6.52699 15.4738 6.42011 15.4925C6.31323 15.5111 6.20319 15.4945 6.1066 15.4451C6.01001 15.3957 5.9321 15.3162 5.88463 15.2187C5.83716 15.1211 5.82271 15.0108 5.84346 14.9043L6.75971 10.3212L3.15783 8.96867C3.08048 8.93973 3.01149 8.89209 2.95705 8.82998C2.9026 8.76788 2.86438 8.69326 2.84581 8.61279C2.82724 8.53231 2.82889 8.44849 2.85062 8.36881C2.87235 8.28913 2.91348 8.21607 2.97033 8.15617L9.97033 0.656167C10.0445 0.577002 10.1424 0.524112 10.2493 0.505478C10.3562 0.486844 10.4662 0.503477 10.5628 0.552868C10.6594 0.602259 10.7373 0.681727 10.7848 0.779281C10.8323 0.876835 10.8467 0.98718 10.826 1.09367L9.90721 5.68179L13.5091 7.03242C13.5859 7.06155 13.6543 7.10914 13.7083 7.171C13.7623 7.23285 13.8003 7.30706 13.8188 7.38707C13.8374 7.46707 13.8359 7.55041 13.8146 7.62972C13.7933 7.70903 13.7527 7.78187 13.6966 7.84179H13.6991Z" fill="#353C40"/>
</svg>
