<svg width="40" height="41" viewBox="0 0 40 41" fill="none" xmlns="http://www.w3.org/2000/svg">
<path d="M18.5322 25.5332C19.9297 25.5332 21.2393 25.1113 22.3291 24.3906L26.1787 28.249C26.4336 28.4951 26.7588 28.6182 27.1104 28.6182C27.8398 28.6182 28.376 28.0469 28.376 27.3262C28.376 26.9922 28.2617 26.667 28.0156 26.4209L24.1924 22.5801C24.9834 21.4551 25.4492 20.0928 25.4492 18.6162C25.4492 14.8105 22.3379 11.6992 18.5322 11.6992C14.7354 11.6992 11.6152 14.8105 11.6152 18.6162C11.6152 22.4219 14.7266 25.5332 18.5322 25.5332ZM18.5322 23.6875C15.7461 23.6875 13.4609 21.4023 13.4609 18.6162C13.4609 15.8301 15.7461 13.5449 18.5322 13.5449C21.3184 13.5449 23.6035 15.8301 23.6035 18.6162C23.6035 21.4023 21.3184 23.6875 18.5322 23.6875Z" fill="#353C40"/>
</svg>
