<svg width="16" height="13" viewBox="0 0 16 13" fill="none" xmlns="http://www.w3.org/2000/svg">
<path d="M15.3335 5.25H14.6585L12.9222 1.34375C12.8437 1.16702 12.7155 1.01686 12.5534 0.911478C12.3912 0.806094 12.2019 0.750002 12.0085 0.75H4.6585C4.46508 0.750002 4.27582 0.806094 4.11364 0.911478C3.95146 1.01686 3.82332 1.16702 3.74475 1.34375L2.0085 5.25H1.3335C1.20089 5.25 1.07371 5.30268 0.979943 5.39645C0.886174 5.49021 0.833496 5.61739 0.833496 5.75C0.833496 5.88261 0.886174 6.00979 0.979943 6.10355C1.07371 6.19732 1.20089 6.25 1.3335 6.25H1.8335V11.25C1.8335 11.5152 1.93885 11.7696 2.12639 11.9571C2.31393 12.1446 2.56828 12.25 2.8335 12.25H4.3335C4.59871 12.25 4.85307 12.1446 5.0406 11.9571C5.22814 11.7696 5.3335 11.5152 5.3335 11.25V10.25H11.3335V11.25C11.3335 11.5152 11.4389 11.7696 11.6264 11.9571C11.8139 12.1446 12.0683 12.25 12.3335 12.25H13.8335C14.0987 12.25 14.3531 12.1446 14.5406 11.9571C14.7281 11.7696 14.8335 11.5152 14.8335 11.25V6.25H15.3335C15.4661 6.25 15.5933 6.19732 15.687 6.10355C15.7808 6.00979 15.8335 5.88261 15.8335 5.75C15.8335 5.61739 15.7808 5.49021 15.687 5.39645C15.5933 5.30268 15.4661 5.25 15.3335 5.25Z" fill="#353C40"/>
</svg>
