<svg width="27" height="27" viewBox="0 0 27 27" fill="none" xmlns="http://www.w3.org/2000/svg">
<path d="M13.5 14.9634C13.3537 14.9634 13.2075 14.9297 13.0725 14.8509L3.13872 9.10219C2.74497 8.86594 2.59872 8.34844 2.83497 7.94344C3.07122 7.53844 3.58872 7.40344 3.99372 7.63969L13.5 13.1409L22.95 7.67344C23.355 7.43719 23.8725 7.58344 24.1087 7.97719C24.345 8.38219 24.1987 8.89969 23.805 9.13594L13.9387 14.8509C13.7925 14.9184 13.6462 14.9634 13.5 14.9634Z" fill="#353C40"/>
<path d="M13.5 25.1549C13.0387 25.1549 12.6562 24.7724 12.6562 24.3112V14.1074C12.6562 13.6462 13.0387 13.2637 13.5 13.2637C13.9612 13.2637 14.3438 13.6462 14.3438 14.1074V24.3112C14.3438 24.7724 13.9612 25.1549 13.5 25.1549Z" fill="#353C40"/>
<path d="M13.5 25.5938C12.51 25.5938 11.5312 25.38 10.755 24.9525L4.74747 21.6113C3.11622 20.7113 1.84497 18.54 1.84497 16.6725V10.3163C1.84497 8.44875 3.11622 6.28875 4.74747 5.3775L10.755 2.0475C12.2962 1.1925 14.7037 1.1925 16.245 2.0475L22.2525 5.38875C23.8837 6.28875 25.155 8.46 25.155 10.3275V16.6838C25.155 18.5513 23.8837 20.7113 22.2525 21.6225L16.245 24.9525C15.4687 25.38 14.49 25.5938 13.5 25.5938ZM13.5 3.09375C12.7912 3.09375 12.0937 3.24 11.5762 3.52125L5.56872 6.8625C4.48872 7.45875 3.53247 9.07875 3.53247 10.3163V16.6725C3.53247 17.91 4.48872 19.53 5.56872 20.1375L11.5762 23.4788C12.6 24.0525 14.4 24.0525 15.4237 23.4788L21.4312 20.1375C22.5112 19.53 23.4675 17.9213 23.4675 16.6725V10.3163C23.4675 9.07875 22.5112 7.45875 21.4312 6.85125L15.4237 3.51C14.9062 3.24 14.2087 3.09375 13.5 3.09375Z" fill="#353C40"/>
</svg>
