<svg width="28" height="20" viewBox="0 0 28 20" fill="none" xmlns="http://www.w3.org/2000/svg">
<g filter="url(#filter0_dd_606_3720)">
<g clip-path="url(#clip0_606_3720)">
<mask id="mask0_606_3720" style="mask-type:luminance" maskUnits="userSpaceOnUse" x="3" y="2" width="22" height="14">
<rect x="3" y="2" width="22" height="14" fill="white"/>
</mask>
<g mask="url(#mask0_606_3720)">
<path fill-rule="evenodd" clip-rule="evenodd" d="M3 11.334H25V16.0007H3V11.334Z" fill="#14DC5A"/>
<path fill-rule="evenodd" clip-rule="evenodd" d="M3 2H25V7.83333H3V2Z" fill="#0099B5"/>
<path d="M1.625 7.33398H1.125V7.83398V11.334V11.834H1.625H26.375H26.875V11.334V7.83398V7.33398H26.375H1.625Z" fill="#F7FCFF" stroke="#C51918"/>
<path fill-rule="evenodd" clip-rule="evenodd" d="M8.79407 6.06042L8.33135 6.27857L8.46351 5.8352L8.02026 5.5094H8.5992L8.79337 5.08984L9.02105 5.5094H9.51458L9.1268 5.8352L9.31325 6.27857L8.79407 6.06042Z" fill="#F7FCFF"/>
<path fill-rule="evenodd" clip-rule="evenodd" d="M10.9791 6.06042L10.5164 6.27857L10.6486 5.8352L10.2053 5.5094H10.7843L10.9784 5.08984L11.2061 5.5094H11.6996L11.3119 5.8352L11.4983 6.27857L10.9791 6.06042Z" fill="#F7FCFF"/>
<path fill-rule="evenodd" clip-rule="evenodd" d="M10.9791 4.87097L10.5164 5.08911L10.6486 4.64575L10.2053 4.31995H10.7843L10.9784 3.90039L11.2061 4.31995H11.6996L11.3119 4.64575L11.4983 5.08911L10.9791 4.87097Z" fill="#F7FCFF"/>
<path fill-rule="evenodd" clip-rule="evenodd" d="M13.028 6.06042L12.5652 6.27857L12.6974 5.8352L12.2542 5.5094H12.8331L13.0273 5.08984L13.2549 5.5094H13.7485L13.3607 5.8352L13.5471 6.27857L13.028 6.06042Z" fill="#F7FCFF"/>
<path fill-rule="evenodd" clip-rule="evenodd" d="M13.028 4.87097L12.5652 5.08911L12.6974 4.64575L12.2542 4.31995H12.8331L13.0273 3.90039L13.2549 4.31995H13.7485L13.3607 4.64575L13.5471 5.08911L13.028 4.87097Z" fill="#F7FCFF"/>
<path fill-rule="evenodd" clip-rule="evenodd" d="M12.9972 3.75378L12.5345 3.97193L12.6666 3.52856L12.2234 3.20276H12.8023L12.9965 2.7832L13.2242 3.20276H13.7177L13.3299 3.52856L13.5164 3.97193L12.9972 3.75378Z" fill="#F7FCFF"/>
<path fill-rule="evenodd" clip-rule="evenodd" d="M15.0902 6.06042L14.6275 6.27857L14.7596 5.8352L14.3164 5.5094H14.8953L15.0895 5.08984L15.3172 5.5094H15.8107L15.4229 5.8352L15.6094 6.27857L15.0902 6.06042Z" fill="#F7FCFF"/>
<path fill-rule="evenodd" clip-rule="evenodd" d="M15.0902 4.87097L14.6275 5.08911L14.7596 4.64575L14.3164 4.31995H14.8953L15.0895 3.90039L15.3172 4.31995H15.8107L15.4229 4.64575L15.6094 5.08911L15.0902 4.87097Z" fill="#F7FCFF"/>
<path fill-rule="evenodd" clip-rule="evenodd" d="M15.059 3.75378L14.5962 3.97193L14.7284 3.52856L14.2852 3.20276H14.8641L15.0583 2.7832L15.2859 3.20276H15.7795L15.3917 3.52856L15.5781 3.97193L15.059 3.75378Z" fill="#F7FCFF"/>
<path fill-rule="evenodd" clip-rule="evenodd" d="M17.1732 6.06042L16.7105 6.27857L16.8427 5.8352L16.3994 5.5094H16.9783L17.1725 5.08984L17.4002 5.5094H17.8937L17.506 5.8352L17.6924 6.27857L17.1732 6.06042Z" fill="#F7FCFF"/>
<path fill-rule="evenodd" clip-rule="evenodd" d="M17.1732 4.87097L16.7105 5.08911L16.8427 4.64575L16.3994 4.31995H16.9783L17.1725 3.90039L17.4002 4.31995H17.8937L17.506 4.64575L17.6924 5.08911L17.1732 4.87097Z" fill="#F7FCFF"/>
<path fill-rule="evenodd" clip-rule="evenodd" d="M17.1425 3.75378L16.6797 3.97193L16.8119 3.52856L16.3687 3.20276H16.9476L17.1418 2.7832L17.3694 3.20276H17.863L17.4752 3.52856L17.6616 3.97193L17.1425 3.75378Z" fill="#F7FCFF"/>
<path fill-rule="evenodd" clip-rule="evenodd" d="M5.41625 5.01046C5.38498 6.42416 7.04587 6.80638 7.04587 6.80638C6.4072 7.0204 4.33809 6.68724 4.3755 4.99612C4.41291 3.30501 6.43958 3.00949 7.125 3.22972C7.125 3.22972 5.44753 3.59676 5.41625 5.01046Z" fill="#F7FCFF"/>
</g>
</g>
</g>
<defs>
<filter id="filter0_dd_606_3720" x="0" y="0" width="28" height="20" filterUnits="userSpaceOnUse" color-interpolation-filters="sRGB">
<feFlood flood-opacity="0" result="BackgroundImageFix"/>
<feColorMatrix in="SourceAlpha" type="matrix" values="0 0 0 0 0 0 0 0 0 0 0 0 0 0 0 0 0 0 127 0" result="hardAlpha"/>
<feOffset dy="1"/>
<feGaussianBlur stdDeviation="1.5"/>
<feComposite in2="hardAlpha" operator="out"/>
<feColorMatrix type="matrix" values="0 0 0 0 0 0 0 0 0 0 0 0 0 0 0 0 0 0 0.1 0"/>
<feBlend mode="normal" in2="BackgroundImageFix" result="effect1_dropShadow_606_3720"/>
<feColorMatrix in="SourceAlpha" type="matrix" values="0 0 0 0 0 0 0 0 0 0 0 0 0 0 0 0 0 0 127 0" result="hardAlpha"/>
<feMorphology radius="1" operator="erode" in="SourceAlpha" result="effect2_dropShadow_606_3720"/>
<feOffset dy="1"/>
<feGaussianBlur stdDeviation="1"/>
<feComposite in2="hardAlpha" operator="out"/>
<feColorMatrix type="matrix" values="0 0 0 0 0 0 0 0 0 0 0 0 0 0 0 0 0 0 0.1 0"/>
<feBlend mode="normal" in2="effect1_dropShadow_606_3720" result="effect2_dropShadow_606_3720"/>
<feBlend mode="normal" in="SourceGraphic" in2="effect2_dropShadow_606_3720" result="shape"/>
</filter>
<clipPath id="clip0_606_3720">
<rect x="3" y="2" width="22" height="14" rx="2" fill="white"/>
</clipPath>
</defs>
</svg>
