<svg width="17" height="17" viewBox="0 0 17 17" fill="none" xmlns="http://www.w3.org/2000/svg">
<path d="M16.2087 7.49995L11.9925 3.25495C10.8664 2.13115 9.34055 1.5 7.74967 1.5C6.1588 1.5 4.6329 2.13115 3.50686 3.25495L3.50124 3.26057L2.64061 4.14995C2.55146 4.24576 2.50342 4.3727 2.50682 4.50353C2.51021 4.63435 2.56477 4.75863 2.65877 4.84969C2.75277 4.94075 2.87872 4.99132 3.00959 4.99055C3.14046 4.98978 3.26581 4.93773 3.35874 4.84557L4.21686 3.95932C4.5621 3.61415 4.95608 3.32145 5.38624 3.09057L8.29249 5.99995L2.29249 11.9999C2.1996 12.0928 2.12592 12.2031 2.07565 12.3244C2.02539 12.4457 1.99951 12.5758 1.99951 12.7071C1.99951 12.8385 2.02539 12.9685 2.07565 13.0899C2.12592 13.2112 2.1996 13.3215 2.29249 13.4143L3.58561 14.7074C3.67847 14.8003 3.78872 14.874 3.91006 14.9243C4.0314 14.9745 4.16146 15.0004 4.2928 15.0004C4.42414 15.0004 4.55419 14.9745 4.67553 14.9243C4.79688 14.874 4.90712 14.8003 4.99999 14.7074L11 8.70745L13 10.7074C13.0928 10.8003 13.2031 10.874 13.3244 10.9243C13.4458 10.9745 13.5758 11.0004 13.7072 11.0004C13.8385 11.0004 13.9686 10.9745 14.0899 10.9243C14.2113 10.874 14.3215 10.8003 14.4144 10.7074L16.2075 8.91432C16.3005 8.82154 16.3742 8.71136 16.4246 8.59006C16.475 8.46877 16.501 8.33874 16.5011 8.20739C16.5012 8.07605 16.4754 7.94598 16.4253 7.82459C16.3751 7.70321 16.3015 7.59289 16.2087 7.49995ZM10.6462 7.64557L9.24999 9.04182L7.95686 7.74995L9.35374 6.35307C9.40023 6.30664 9.4371 6.25149 9.46227 6.19079C9.48743 6.13009 9.50038 6.06503 9.50038 5.99932C9.50038 5.93361 9.48743 5.86855 9.46227 5.80785C9.4371 5.74715 9.40023 5.69201 9.35374 5.64557L6.39499 2.68745C7.24982 2.44669 8.15335 2.43797 9.01267 2.66216C9.872 2.88636 10.6561 3.33538 11.2844 3.96307L14.0481 6.74495L12.25 8.5412L11.3537 7.64495C11.3073 7.59846 11.2522 7.56158 11.1915 7.53642C11.1308 7.51126 11.0657 7.4983 11 7.4983C10.9343 7.4983 10.8692 7.51126 10.8085 7.53642C10.7478 7.56158 10.6927 7.59846 10.6462 7.64495V7.64557ZM13.7087 9.99932L12.9587 9.24932L14.75 7.45307L15.5 8.20307L13.7087 9.99932Z" fill="#353C40"/>
</svg>
