<svg width="14" height="14" viewBox="0 0 14 14" fill="none" xmlns="http://www.w3.org/2000/svg">
<path d="M10.9375 12.25H8.23266C8.68703 11.8443 9.11553 11.4105 9.51562 10.9512C11.0168 9.22469 11.8125 7.40469 11.8125 5.6875C11.8125 4.41115 11.3055 3.18707 10.403 2.28455C9.50043 1.38203 8.27635 0.875 7 0.875C5.72365 0.875 4.49957 1.38203 3.59705 2.28455C2.69453 3.18707 2.1875 4.41115 2.1875 5.6875C2.1875 7.40469 2.98102 9.22469 4.48438 10.9512C4.88447 11.4105 5.31297 11.8443 5.76734 12.25H3.0625C2.94647 12.25 2.83519 12.2961 2.75314 12.3781C2.67109 12.4602 2.625 12.5715 2.625 12.6875C2.625 12.8035 2.67109 12.9148 2.75314 12.9969C2.83519 13.0789 2.94647 13.125 3.0625 13.125H10.9375C11.0535 13.125 11.1648 13.0789 11.2469 12.9969C11.3289 12.9148 11.375 12.8035 11.375 12.6875C11.375 12.5715 11.3289 12.4602 11.2469 12.3781C11.1648 12.2961 11.0535 12.25 10.9375 12.25ZM7 3.9375C7.34612 3.9375 7.68446 4.04014 7.97225 4.23243C8.26003 4.42472 8.48434 4.69803 8.61679 5.0178C8.74924 5.33757 8.7839 5.68944 8.71637 6.02891C8.64885 6.36837 8.48218 6.68019 8.23744 6.92494C7.99269 7.16968 7.68087 7.33635 7.34141 7.40387C7.00194 7.4714 6.65007 7.43674 6.3303 7.30429C6.01053 7.17184 5.73722 6.94753 5.54493 6.65975C5.35264 6.37196 5.25 6.03362 5.25 5.6875C5.25 5.22337 5.43437 4.77825 5.76256 4.45006C6.09075 4.12187 6.53587 3.9375 7 3.9375Z" fill="#40444D"/>
</svg>
