<svg width="16" height="17" viewBox="0 0 16 17" fill="none" xmlns="http://www.w3.org/2000/svg">
<path d="M13.5 8.25C13.3618 8.25032 13.2238 8.26181 13.0875 8.28438L12.7237 7.33813C12.9783 7.27969 13.2387 7.25012 13.5 7.25C13.6326 7.25 13.7598 7.19732 13.8535 7.10355C13.9473 7.00979 14 6.88261 14 6.75C14 6.61739 13.9473 6.49021 13.8535 6.39645C13.7598 6.30268 13.6326 6.25 13.5 6.25H12.305L11.4669 4.07063C11.4306 3.97624 11.3665 3.89508 11.2832 3.83783C11.1998 3.78059 11.1011 3.74997 11 3.75H8.99998C8.86737 3.75 8.74019 3.80268 8.64642 3.89645C8.55266 3.99021 8.49998 4.11739 8.49998 4.25C8.49998 4.38261 8.55266 4.50979 8.64642 4.60355C8.74019 4.69732 8.86737 4.75 8.99998 4.75H10.6569L11.2337 6.25H9.49998C8.34373 6.25 7.40623 6.51937 6.78935 7.02875C6.64419 7.14585 6.46917 7.22003 6.28406 7.24289C6.09896 7.26575 5.91115 7.23639 5.74185 7.15812C5.0806 6.8575 1.16123 5.27562 1.12935 5.26687C1.00479 5.23026 0.870878 5.24354 0.755929 5.30389C0.640979 5.36424 0.554012 5.46693 0.513419 5.59025C0.472827 5.71357 0.481793 5.84784 0.538422 5.96467C0.59505 6.0815 0.6949 6.17172 0.816853 6.21625C0.816853 6.21625 4.2856 7.5875 4.97498 8.275C5.51054 8.80839 5.85784 9.50168 5.96435 10.25H4.94998C4.82607 9.64298 4.48118 9.10359 3.98218 8.7364C3.48318 8.36921 2.86562 8.20039 2.24922 8.26266C1.63281 8.32493 1.06149 8.61385 0.64601 9.07342C0.230528 9.53299 0.000488281 10.1305 0.000488281 10.75C0.000488281 11.3695 0.230528 11.967 0.64601 12.4266C1.06149 12.8861 1.63281 13.1751 2.24922 13.2373C2.86562 13.2996 3.48318 13.1308 3.98218 12.7636C4.48118 12.3964 4.82607 11.857 4.94998 11.25H8.20748C8.64114 11.251 9.0633 11.1105 9.40999 10.85C9.75668 10.5895 10.009 10.2231 10.1287 9.80625C10.2535 9.3629 10.4644 8.94852 10.7496 8.58687C11.0348 8.22523 11.3886 7.92342 11.7906 7.69875L12.1544 8.64437C11.6476 8.96874 11.2748 9.46499 11.1044 10.042C10.934 10.6191 10.9775 11.2383 11.2268 11.7859C11.4761 12.3335 11.9145 12.7728 12.4616 13.0232C13.0087 13.2736 13.6278 13.3183 14.2052 13.1491C14.7826 12.9799 15.2796 12.6081 15.605 12.102C15.9304 11.5958 16.0623 10.9893 15.9766 10.3938C15.8908 9.79825 15.5932 9.2536 15.1383 8.8598C14.6834 8.46601 14.1017 8.2495 13.5 8.25ZM2.49998 11.25H3.91373C3.79578 11.5836 3.56369 11.8648 3.25849 12.0438C2.95328 12.2229 2.59461 12.2882 2.24586 12.2284C1.89711 12.1686 1.58075 11.9874 1.35268 11.7168C1.1246 11.4463 0.999514 11.1038 0.999514 10.75C0.999514 10.3962 1.1246 10.0537 1.35268 9.78317C1.58075 9.51264 1.89711 9.33144 2.24586 9.2716C2.59461 9.21177 2.95328 9.27715 3.25849 9.45618C3.56369 9.63522 3.79578 9.91639 3.91373 10.25H2.49998C2.36737 10.25 2.24019 10.3027 2.14642 10.3964C2.05266 10.4902 1.99998 10.6174 1.99998 10.75C1.99998 10.8826 2.05266 11.0098 2.14642 11.1036C2.24019 11.1973 2.36737 11.25 2.49998 11.25ZM13.5 12.25C13.1936 12.2496 12.8947 12.1554 12.6434 11.9801C12.3921 11.8047 12.2006 11.5566 12.0946 11.2692C11.9885 10.9817 11.973 10.6687 12.0502 10.3722C12.1274 10.0757 12.2935 9.80991 12.5262 9.61063L13.0331 10.9294C13.0807 11.0532 13.1755 11.1531 13.2967 11.207C13.4179 11.2609 13.5555 11.2644 13.6794 11.2169C13.8032 11.1693 13.903 11.0745 13.9569 10.9533C14.0109 10.8321 14.0144 10.6944 13.9669 10.5706L13.4594 9.25H13.5C13.8978 9.25 14.2793 9.40804 14.5606 9.68934C14.8419 9.97064 15 10.3522 15 10.75C15 11.1478 14.8419 11.5294 14.5606 11.8107C14.2793 12.092 13.8978 12.25 13.5 12.25Z" fill="#353C40"/>
</svg>
