<svg width="20" height="15" viewBox="0 0 20 15" fill="none" xmlns="http://www.w3.org/2000/svg">
<path d="M19.6216 5.33144L18.5133 2.41586C18.4192 2.16904 18.2568 1.95766 18.0472 1.80913C17.8376 1.66059 17.5904 1.58175 17.3377 1.58284H14.6001V0.916418C14.6001 0.739673 14.5334 0.570167 14.4146 0.445189C14.2958 0.320212 14.1347 0.25 13.9667 0.25H1.93341C1.59747 0.25 1.27529 0.390423 1.03775 0.640378C0.8002 0.890334 0.666748 1.22935 0.666748 1.58284V10.9127C0.666748 11.2662 0.8002 11.6052 1.03775 11.8551C1.27529 12.1051 1.59747 12.2455 1.93341 12.2455H3.27925C3.41877 12.8189 3.73569 13.3271 4.18004 13.6901C4.6244 14.053 5.17091 14.25 5.73341 14.25C6.29592 14.25 6.84243 14.053 7.28679 13.6901C7.73114 13.3271 8.04806 12.8189 8.18758 12.2455H12.1459C12.2854 12.8189 12.6024 13.3271 13.0467 13.6901C13.4911 14.053 14.0376 14.25 14.6001 14.25C15.1626 14.25 15.7091 14.053 16.1535 13.6901C16.5978 13.3271 16.9147 12.8189 17.0542 12.2455H18.4001C18.736 12.2455 19.0582 12.1051 19.2957 11.8551C19.5333 11.6052 19.6667 11.2662 19.6667 10.9127V5.58134C19.6668 5.49579 19.6515 5.41099 19.6216 5.33144ZM5.73341 12.9119C5.48289 12.9119 5.23799 12.8338 5.02969 12.6873C4.82139 12.5409 4.65904 12.3327 4.56317 12.0892C4.4673 11.8456 4.44221 11.5776 4.49109 11.3191C4.53996 11.0605 4.6606 10.823 4.83775 10.6366C5.01489 10.4502 5.24059 10.3233 5.4863 10.2719C5.73201 10.2204 5.98669 10.2468 6.21815 10.3477C6.4496 10.4486 6.64743 10.6194 6.78661 10.8386C6.92579 11.0578 7.00008 11.3155 7.00008 11.5791C7.00008 11.9326 6.86663 12.2716 6.62908 12.5216C6.39154 12.7715 6.06936 12.9119 5.73341 12.9119ZM1.93341 6.91418V1.58284H13.3334V6.91418H1.93341ZM14.6001 12.9119C14.3496 12.9119 14.1047 12.8338 13.8964 12.6873C13.6881 12.5409 13.5257 12.3327 13.4298 12.0892C13.334 11.8456 13.3089 11.5776 13.3578 11.3191C13.4066 11.0605 13.5273 10.823 13.7044 10.6366C13.8816 10.4502 14.1073 10.3233 14.353 10.2719C14.5987 10.2204 14.8534 10.2468 15.0848 10.3477C15.3163 10.4486 15.5141 10.6194 15.6533 10.8386C15.7925 11.0578 15.8667 11.3155 15.8667 11.5791C15.8667 11.9326 15.7333 12.2716 15.4957 12.5216C15.2582 12.7715 14.936 12.9119 14.6001 12.9119ZM14.6001 4.91492V2.91567H17.3377L18.0977 4.91492H14.6001Z" fill="#353C40"/>
</svg>
