<svg width="20" height="20" viewBox="0 0 20 20" fill="none" xmlns="http://www.w3.org/2000/svg">
<path d="M15.8332 8.95768H14.1665C12.1498 8.95768 11.0415 7.84935 11.0415 5.83268V4.16602C11.0415 2.14935 12.1498 1.04102 14.1665 1.04102H15.8332C17.8498 1.04102 18.9582 2.14935 18.9582 4.16602V5.83268C18.9582 7.84935 17.8498 8.95768 15.8332 8.95768Z" fill="#F9F9F9"/>
<path d="M5.83317 18.9577H4.1665C2.14984 18.9577 1.0415 17.8493 1.0415 15.8327V14.166C1.0415 12.1493 2.14984 11.041 4.1665 11.041H5.83317C7.84984 11.041 8.95817 12.1493 8.95817 14.166V15.8327C8.95817 17.8493 7.84984 18.9577 5.83317 18.9577Z" fill="#F9F9F9"/>
<path d="M4.99984 8.95768C2.8165 8.95768 1.0415 7.18268 1.0415 4.99935C1.0415 2.81602 2.8165 1.04102 4.99984 1.04102C7.18317 1.04102 8.95817 2.81602 8.95817 4.99935C8.95817 7.18268 7.18317 8.95768 4.99984 8.95768Z" fill="#F9F9F9"/>
<path d="M14.9998 18.9577C12.8165 18.9577 11.0415 17.1827 11.0415 14.9993C11.0415 12.816 12.8165 11.041 14.9998 11.041C17.1832 11.041 18.9582 12.816 18.9582 14.9993C18.9582 17.1827 17.1832 18.9577 14.9998 18.9577Z" fill="#F9F9F9"/>
</svg>
