<svg width="28" height="27" viewBox="0 0 28 27" fill="none" xmlns="http://www.w3.org/2000/svg">
<path d="M14 24.357C13.6512 24.357 13.3138 24.312 13.0325 24.2108C8.735 22.737 1.90625 17.5058 1.90625 9.77703C1.90625 5.83953 5.09 2.64453 9.005 2.64453C10.9062 2.64453 12.6838 3.38703 14 4.71453C15.3162 3.38703 17.0938 2.64453 18.995 2.64453C22.91 2.64453 26.0938 5.85078 26.0938 9.77703C26.0938 17.517 19.265 22.737 14.9675 24.2108C14.6862 24.312 14.3488 24.357 14 24.357ZM9.005 4.33203C6.02375 4.33203 3.59375 6.77328 3.59375 9.77703C3.59375 17.4608 10.985 21.7358 13.5837 22.6245C13.7863 22.692 14.225 22.692 14.4275 22.6245C17.015 21.7358 24.4175 17.472 24.4175 9.77703C24.4175 6.77328 21.9875 4.33203 19.0063 4.33203C17.2963 4.33203 15.71 5.13078 14.6862 6.51453C14.3712 6.94203 13.6512 6.94203 13.3363 6.51453C12.29 5.11953 10.715 4.33203 9.005 4.33203Z" fill="#353C40"/>
</svg>
